<svg width="24" height="27" viewBox="0 0 24 27" fill="none" xmlns="http://www.w3.org/2000/svg">
<path d="M22.3475 12.7617C22.441 12.8581 22.5153 12.9726 22.5659 13.0987C22.6165 13.2247 22.6426 13.3598 22.6426 13.4962C22.6426 13.6326 22.6165 13.7677 22.5659 13.8938C22.5153 14.0198 22.441 14.1343 22.3475 14.2307L12.0264 24.8716C10.7051 26.2345 8.91309 27.0001 7.04462 27C5.17615 26.9999 3.38426 26.234 2.06314 24.871C0.742015 23.5079 -0.000117918 21.6593 1.40532e-08 19.7317C0.000117946 17.8042 0.742477 15.9556 2.06377 14.5928L14.5497 1.52258C15.493 0.548417 16.7728 0.000730814 18.1076 7.30848e-07C19.4423 -0.000729353 20.7226 0.545557 21.6669 1.51868C22.6112 2.49181 23.1421 3.81206 23.1429 5.189C23.1436 6.56593 22.614 7.88677 21.6707 8.86092L9.18225 21.9311C8.6151 22.5162 7.84588 22.8449 7.04381 22.8449C6.24174 22.8449 5.47252 22.5162 4.90537 21.9311C4.33822 21.346 4.0196 20.5525 4.0196 19.7251C4.0196 18.8976 4.33822 18.1041 4.90537 17.519L15.3837 6.53809C15.4755 6.43707 15.586 6.35602 15.7086 6.2997C15.8312 6.24338 15.9635 6.21293 16.0976 6.21015C16.2318 6.20736 16.3652 6.23229 16.4899 6.28348C16.6146 6.33466 16.7281 6.41106 16.8238 6.50818C16.9194 6.6053 16.9953 6.72119 17.0469 6.849C17.0985 6.97682 17.1248 7.11399 17.1242 7.25245C17.1236 7.3909 17.0962 7.52784 17.0436 7.65521C16.991 7.78257 16.9142 7.89779 16.8177 7.99408L6.33812 18.9867C6.2443 19.0827 6.16972 19.1969 6.11866 19.3226C6.06759 19.4484 6.04104 19.5833 6.04051 19.7196C6.03999 19.856 6.0655 19.9911 6.11559 20.1173C6.16569 20.2434 6.23938 20.3582 6.33246 20.455C6.42555 20.5518 6.5362 20.6287 6.65811 20.6814C6.78001 20.7341 6.91078 20.7615 7.04295 20.762C7.17512 20.7626 7.30609 20.7362 7.4284 20.6846C7.55071 20.6329 7.66195 20.5569 7.75578 20.4608L20.243 7.39715C20.8101 6.81327 21.1292 6.02089 21.1301 5.19431C21.1309 4.36774 20.8134 3.57468 20.2474 2.9896C19.6814 2.40452 18.9133 2.07534 18.1121 2.07449C17.3108 2.07364 16.5421 2.40118 15.9749 2.98505L3.49149 16.05C3.02383 16.5317 2.65272 17.1037 2.39935 17.7333C2.14597 18.363 2.01529 19.0379 2.01476 19.7196C2.01424 20.4014 2.14388 21.0765 2.39628 21.7066C2.64869 22.3366 3.01892 22.9092 3.48583 23.3916C3.95274 23.8741 4.50719 24.2569 5.11752 24.5183C5.72785 24.7797 6.38211 24.9145 7.04295 24.915C7.70379 24.9156 8.35826 24.7819 8.96899 24.5215C9.57973 24.2611 10.1348 23.8791 10.6024 23.3975L20.9248 12.7565C21.1142 12.5627 21.3704 12.4543 21.6372 12.4553C21.9039 12.4563 22.1594 12.5665 22.3475 12.7617Z" fill="#929292"/>
</svg>
