<svg width="60" height="67" viewBox="0 0 60 67" fill="none" xmlns="http://www.w3.org/2000/svg">
<g filter="url(#filter0_d_128_111)">
<path d="M25.0187 34.861C23.501 38.2357 39.7087 39.5766 35.001 37.2357C31.0193 35.2558 31 31.2357 31 22.2357C31 13.2357 25.0187 34.861 25.0187 34.861Z" fill="#0151A3"/>
<path d="M30.4375 20.9589C30.4774 21.2651 30.5 21.6842 30.5 22.2353C30.5 26.712 30.5026 30.0305 31.0186 32.4716C31.279 33.7036 31.6748 34.7425 32.2871 35.6103C32.9027 36.4825 33.7186 37.1566 34.7783 37.6835C34.8935 37.7408 34.9902 37.794 35.0713 37.8417C34.3047 37.9664 32.864 37.9215 31.2764 37.6962C29.6609 37.467 27.9784 37.0652 26.8086 36.5302C26.2177 36.26 25.8095 35.9792 25.5928 35.7128C25.4889 35.5851 25.441 35.4748 25.4248 35.3828C25.4095 35.2954 25.4173 35.1939 25.4746 35.0663L25.4902 35.0312L25.501 34.9941V34.9931C25.5011 34.9925 25.5017 34.9913 25.502 34.9902C25.5026 34.9877 25.5036 34.9841 25.5049 34.9794C25.5077 34.9692 25.512 34.9536 25.5176 34.9335C25.5288 34.8932 25.5456 34.8334 25.5674 34.7558C25.611 34.6003 25.6753 34.3728 25.7568 34.0869C25.92 33.5146 26.1529 32.7067 26.4326 31.7656C26.9925 29.8818 27.7376 27.4676 28.4814 25.3378C28.8534 24.2728 29.2238 23.2843 29.5684 22.4706C29.8905 21.7099 30.1773 21.1344 30.4102 20.791C30.419 20.8406 30.4293 20.8962 30.4375 20.9589Z" stroke="url(#paint0_radial_128_111)" stroke-opacity="0.36"/>
</g>
<defs>
<filter id="filter0_d_128_111" x="0.917969" y="0.0438843" width="58.9438" height="66.3676" filterUnits="userSpaceOnUse" color-interpolation-filters="sRGB">
<feFlood flood-opacity="0" result="BackgroundImageFix"/>
<feColorMatrix in="SourceAlpha" type="matrix" values="0 0 0 0 0 0 0 0 0 0 0 0 0 0 0 0 0 0 127 0" result="hardAlpha"/>
<feOffset dy="4"/>
<feGaussianBlur stdDeviation="12"/>
<feComposite in2="hardAlpha" operator="out"/>
<feColorMatrix type="matrix" values="0 0 0 0 0.156863 0 0 0 0 0.654902 0 0 0 0 0.909804 0 0 0 0.24 0"/>
<feBlend mode="normal" in2="BackgroundImageFix" result="effect1_dropShadow_128_111"/>
<feBlend mode="normal" in="SourceGraphic" in2="effect1_dropShadow_128_111" result="shape"/>
</filter>
<radialGradient id="paint0_radial_128_111" cx="0" cy="0" r="1" gradientUnits="userSpaceOnUse" gradientTransform="translate(26.5 28.2357) rotate(17.5256) scale(9.96243 36.1575)">
<stop offset="0.1875" stop-color="#00356C" stop-opacity="0"/>
<stop offset="0.533892" stop-color="#00356C"/>
</radialGradient>
</defs>
</svg>
