<svg width="27" height="27" viewBox="0 0 27 27" fill="none" xmlns="http://www.w3.org/2000/svg">
<g clip-path="url(#clip0_125_2667)">
<path d="M17.9087 26.0822C17.7024 26.1193 17.4242 26.0997 17.2106 26.101L4.65377 26.0971C4.48388 26.0969 4.30709 26.1058 4.13869 26.0839C3.86512 26.0485 3.59349 25.8973 3.40015 25.704C3.19866 25.5032 3.06741 25.2426 3.02591 24.961C2.97929 24.6393 3.0097 24.2889 3.01026 23.9628L3.00881 15.591C3.00859 15.1337 3.07329 14.7561 3.41247 14.421C3.62332 14.2144 3.89705 14.0837 4.19041 14.0499C4.37324 14.0273 4.56332 14.0361 4.74727 14.0359L17.7244 14.0362C18.4517 14.0255 19.1801 14.0337 19.9075 14.0337L20.7352 14.034C20.9459 14.034 21.1599 14.0247 21.3685 14.0595C21.9344 14.1542 22.8017 14.7966 23.2132 15.1969C24.2116 16.1681 24.6807 17.5886 24.6965 18.9618C24.7086 20.0164 24.6077 21.0074 24.207 21.9936C24.1485 22.1376 24.089 22.2833 24.0183 22.4216C23.909 22.6361 23.7242 22.8624 23.7052 23.107C23.688 23.3294 23.6995 23.5589 23.6997 23.7822L23.7009 24.9869C23.701 25.1835 23.7164 25.3919 23.6965 25.5867C23.6907 25.6435 23.6775 25.7243 23.6379 25.7683C23.6061 25.8034 23.5415 25.8174 23.4963 25.8134C23.1846 25.7858 22.567 24.7509 22.1614 24.739C22.0869 24.7368 22.015 24.7638 21.9494 24.7968C21.7589 24.8923 21.5839 25.0305 21.3985 25.1377C21.0735 25.3258 20.7194 25.475 20.3677 25.6049C19.6954 25.8532 18.6227 26.087 17.9087 26.0822ZM17.5594 23.315C17.6121 23.2809 17.6898 23.2656 17.75 23.2464C17.8827 23.1922 18.0144 23.1322 18.1389 23.061C18.731 22.72 19.1634 22.1577 19.3409 21.498C19.5168 20.8449 19.4278 20.1488 19.0931 19.5609C18.7406 18.9477 18.1716 18.523 17.4914 18.339L17.391 18.3153C16.7193 18.1813 16.0237 18.2979 15.4497 18.6801C15.1007 18.9127 14.8499 19.1971 14.6267 19.5485C14.2568 19.4313 13.8752 19.3402 13.5007 19.2382C13.1735 19.1491 12.8435 19.0444 12.5125 18.9729C12.4778 18.2266 12.2484 17.5663 11.681 17.0528C11.1866 16.6054 10.5133 16.337 9.84186 16.3717C9.14465 16.4077 8.49407 16.7002 8.02525 17.2218C7.57029 17.7263 7.33242 18.3897 7.36317 19.0684C7.39785 19.7574 7.70692 20.404 8.22142 20.8637C8.73902 21.3286 9.42373 21.5623 10.1175 21.5109C10.8042 21.4627 11.4427 21.1404 11.8891 20.6164C11.994 20.4951 12.0815 20.3633 12.1665 20.2277C12.5583 20.3544 12.9642 20.4512 13.3617 20.5595C13.6634 20.6417 13.9725 20.7441 14.2788 20.8035C14.3046 21.5371 14.5543 22.2016 15.0988 22.7094C15.6026 23.1835 16.2771 23.4329 16.968 23.4006C17.1699 23.393 17.3617 23.3521 17.5594 23.315Z" fill="#929292"/>
<path d="M17.7244 14.0362C18.4517 14.0255 19.1801 14.0337 19.9075 14.0337L20.7352 14.034C20.9459 14.034 21.1599 14.0247 21.3685 14.0595C21.9344 14.1542 22.8017 14.7966 23.2132 15.1969C24.2116 16.1681 24.6807 17.5886 24.6965 18.9618C24.7086 20.0164 24.6077 21.0074 24.207 21.9936C24.1485 22.1376 24.089 22.2833 24.0183 22.4216C23.909 22.6361 23.7242 22.8624 23.7052 23.107C23.688 23.3294 23.6995 23.5589 23.6997 23.7822L23.7009 24.9869C23.701 25.1835 23.7164 25.3919 23.6965 25.5867C23.6907 25.6435 23.6775 25.7243 23.6379 25.7683C23.6061 25.8034 23.5415 25.8174 23.4963 25.8134C23.1846 25.7858 22.567 24.7509 22.1614 24.739C22.0869 24.7368 22.015 24.7638 21.9494 24.7968C21.7589 24.8923 21.5839 25.0305 21.3985 25.1377C21.0735 25.3258 20.7194 25.475 20.3677 25.6049C19.6954 25.8532 18.6227 26.087 17.9087 26.0822C17.7852 26.0631 17.6448 26.0785 17.5187 26.0744C17.4955 25.9841 17.7043 25.9233 17.7106 25.7649C17.7167 25.6167 17.7041 25.4656 17.7039 25.317L17.702 24.1054C17.7018 23.9274 17.6888 23.7382 17.7047 23.5614C17.7113 23.487 17.7357 23.459 17.7924 23.4128L17.8071 23.4009C17.8081 23.3879 17.8087 23.3749 17.8099 23.3619C17.8118 23.342 17.8131 23.3269 17.8131 23.3065C17.793 23.2838 17.774 23.265 17.75 23.2464C17.8827 23.1922 18.0144 23.1322 18.1389 23.061C18.731 22.72 19.1634 22.1577 19.3409 21.498C19.5168 20.8449 19.4278 20.1488 19.0931 19.5609C18.7406 18.9477 18.1716 18.523 17.4914 18.339L17.5121 18.3145C17.533 18.2811 17.5509 18.2662 17.5883 18.2576C17.6139 18.278 17.635 18.2938 17.665 18.3075L17.6902 18.2892C17.7052 18.2631 17.7157 18.2441 17.7157 18.2131C17.7161 17.4437 17.695 16.6726 17.7007 15.9033L17.7087 14.6743C17.7087 14.5308 17.7214 14.3834 17.7132 14.2405C17.6897 14.2185 17.6673 14.1995 17.6385 14.1844C17.5817 14.1545 17.5441 14.1278 17.4984 14.083L17.4828 14.0676C17.5594 14.0695 17.6356 14.0737 17.7118 14.0629L17.7244 14.0362Z" fill="#929292"/>
<path d="M17.5594 23.315L17.5863 23.3322C17.5852 23.3366 17.5835 23.3407 17.583 23.3452C17.5793 23.3791 17.5998 23.4178 17.6119 23.4491C17.6048 23.4768 17.6015 23.4797 17.5826 23.4994C17.5484 23.472 17.5239 23.45 17.5008 23.4125C17.504 23.3848 17.5028 23.3717 17.5261 23.3527C17.533 23.3472 17.5457 23.3413 17.5539 23.3374L17.5594 23.315Z" fill="#929292"/>
<path d="M17.391 18.3153C17.4136 18.2868 17.4251 18.2692 17.4605 18.2562C17.4867 18.2668 17.4924 18.2645 17.5085 18.2892L17.5083 18.308L17.5121 18.3145L17.4914 18.339L17.391 18.3153Z" fill="#929292"/>
<path d="M3.88863 0.00657361C3.93097 0.0015709 3.99079 -0.00647399 4.03143 0.00916247C4.13342 0.0483981 4.29657 0.244054 4.3789 0.326718L5.20658 1.15806C5.35069 1.3028 5.49286 1.46582 5.65091 1.59474C5.69898 1.63394 5.7674 1.6822 5.8297 1.69409C6.00293 1.72715 6.42659 1.70316 6.62027 1.70316L13.6325 1.70279C14.5345 1.70264 15.4391 1.68763 16.3407 1.70522C18.5452 1.74823 21.0064 2.15644 22.6 3.81608C23.8072 5.0733 24.3813 6.72552 24.3452 8.45885C24.3127 10.0225 23.715 11.4064 22.5843 12.4902C22.3783 12.6876 22.1615 12.8734 21.9349 13.0471C21.6824 13.2386 21.4373 13.3596 21.1177 13.3855C20.7464 13.4156 20.3466 13.3907 19.9718 13.3901L4.8709 13.3911C4.64749 13.3909 4.40104 13.4108 4.18102 13.3769C3.82712 13.3243 3.50908 13.1319 3.29789 12.8432C3.15931 12.6554 3.07328 12.4341 3.04865 12.2021C3.02795 12.0002 3.03784 11.7917 3.03792 11.5888L3.03882 4.39211L3.03782 3.47235C3.03769 3.27831 3.02815 3.07839 3.04981 2.88547C3.08163 2.60206 3.20496 2.30813 3.41387 2.11055C3.5228 2.00753 3.69046 1.90917 3.73947 1.76182C3.77651 1.6505 3.7599 1.49908 3.75932 1.38167L3.75539 0.599946C3.75477 0.456509 3.74026 0.295888 3.76657 0.1549C3.78134 0.0758295 3.82462 0.0492133 3.88863 0.00657361ZM14.2167 6.94629C13.5137 7.1502 12.804 7.33475 12.0972 7.52566C11.6972 6.90203 11.1457 6.45648 10.41 6.29799C9.7351 6.15121 9.02952 6.2837 8.45381 6.66531C7.88156 7.0419 7.48322 7.63128 7.34719 8.30268C7.212 8.97459 7.35005 9.67266 7.73081 10.2425C8.11027 10.8102 8.69978 11.2039 9.36958 11.3368C9.61161 11.3848 9.84731 11.3864 10.0925 11.3779C10.8049 11.2959 11.4307 10.9771 11.8817 10.4122C12.2477 9.95172 12.4458 9.38024 12.4433 8.79204C13.1462 8.59143 13.8533 8.40157 14.5594 8.21224C14.9584 8.83638 15.5107 9.28103 16.2457 9.44116C16.9154 9.58581 17.6152 9.45695 18.1894 9.08322C18.7667 8.70816 19.1698 8.11782 19.3091 7.44374C19.4474 6.77154 19.311 6.07198 18.9305 5.50086C18.5466 4.92482 17.9473 4.52716 17.2675 4.39721C17.0636 4.35826 16.7985 4.32419 16.5917 4.36055C15.8942 4.42634 15.2576 4.73941 14.8093 5.28439C14.4165 5.76184 14.221 6.3303 14.2167 6.94629Z" fill="#929292"/>
</g>
<defs>
<clipPath id="clip0_125_2667">
<rect width="26" height="26" fill="white" transform="translate(0.666504 0.444458)"/>
</clipPath>
</defs>
</svg>
