<svg width="27" height="27" viewBox="0 0 27 27" fill="none" xmlns="http://www.w3.org/2000/svg">
<path d="M17.8208 13.0478L14.3438 16.5257V7.59375C14.3438 7.128 13.9658 6.75 13.5 6.75C13.0343 6.75 12.6562 7.128 12.6562 7.59375V16.5257L9.17916 13.0486C8.84925 12.7187 8.31516 12.7187 7.98609 13.0486C7.65618 13.3785 7.65618 13.9126 7.98609 14.2416L12.7592 19.0147C12.9617 19.2172 13.2384 19.2796 13.5009 19.2332C13.7625 19.2796 14.04 19.2164 14.2425 19.0147L19.0156 14.2416C19.3455 13.9117 19.3455 13.3777 19.0156 13.0486C18.6848 12.7187 18.1508 12.7187 17.8208 13.0478ZM13.5 0C6.04465 0 0 6.04377 0 13.5C0 20.9562 6.04465 27 13.5 27C20.9554 27 27 20.9554 27 13.5C27 6.04465 20.9562 0 13.5 0ZM13.5 25.3125C6.9761 25.3125 1.6875 20.0239 1.6875 13.5C1.6875 6.9761 6.9761 1.6875 13.5 1.6875C20.0239 1.6875 25.3125 6.9761 25.3125 13.5C25.3125 20.0239 20.0239 25.3125 13.5 25.3125Z" fill="white"/>
</svg>
