<svg width="46" height="45" viewBox="0 0 46 45" fill="none" xmlns="http://www.w3.org/2000/svg">
<path d="M22.6426 0C16.6766 0 10.9496 2.37199 6.73438 6.59004C2.51562 10.8081 0.142578 16.535 0.142578 22.5C0.142578 28.465 2.51562 34.1919 6.73438 38.41C10.9496 42.628 16.6766 45 22.6426 45C28.6086 45 34.3355 42.628 38.5508 38.41C42.7695 34.1919 45.1426 28.465 45.1426 22.5C45.1426 16.535 42.7695 10.8081 38.5508 6.59004C34.3355 2.37199 28.6086 0 22.6426 0Z" fill="url(#paint0_linear_125_2347)"/>
<path d="M15.1426 22.5C15.1426 26.642 18.5006 30 22.6426 30M22.6426 30C26.7846 30 30.1426 26.642 30.1426 22.5M22.6426 30V33M22.6426 13C24.5756 13 26.1426 14.567 26.1426 16.5V23C26.1426 24.933 24.5756 26.5 22.6426 26.5C20.7096 26.5 19.1426 24.933 19.1426 23V16.5C19.1426 14.567 20.7096 13 22.6426 13Z" stroke="white" stroke-width="2" stroke-linecap="round" stroke-linejoin="round"/>
<defs>
<linearGradient id="paint0_linear_125_2347" x1="53.9501" y1="22.4066" x2="0.142541" y2="22.4653" gradientUnits="userSpaceOnUse">
<stop stop-color="#0073DE"/>
<stop offset="1" stop-color="#033675"/>
</linearGradient>
</defs>
</svg>
