<svg width="30" height="29" viewBox="0 0 30 29" fill="none" xmlns="http://www.w3.org/2000/svg">
<mask id="mask0_125_2183" style="mask-type:alpha" maskUnits="userSpaceOnUse" x="0" y="0" width="30" height="29">
<rect x="0.666504" y="0.111084" width="28.6667" height="28.6667" fill="#D9D9D9"/>
</mask>
<g mask="url(#mask0_125_2183)">
<path d="M3.05528 24C2.71686 24 2.43338 23.8853 2.20484 23.656C1.97551 23.4274 1.86084 23.1439 1.86084 22.8055V20.6555C1.86084 19.9787 2.03523 19.3564 2.38401 18.7886C2.73199 18.2216 3.19464 17.7889 3.77195 17.4902C5.00621 16.8731 6.26038 16.4101 7.53445 16.1011C8.80853 15.7929 10.1025 15.6389 11.4164 15.6389C12.7303 15.6389 14.0243 15.7929 15.2983 16.1011C16.5724 16.4101 17.8266 16.8731 19.0608 17.4902C19.6382 17.7889 20.1008 18.2216 20.4488 18.7886C20.7976 19.3564 20.972 19.9787 20.972 20.6555V22.8055C20.972 23.1439 20.8573 23.4274 20.628 23.656C20.3994 23.8853 20.1159 24 19.7775 24H3.05528ZM22.7935 24C22.9726 23.8606 23.112 23.6862 23.2115 23.4768C23.3111 23.2682 23.3608 23.0345 23.3608 22.7757V20.4166C23.3608 19.5407 23.1172 18.6994 22.6298 17.8928C22.1417 17.0869 21.4497 16.3953 20.5539 15.818C21.5692 15.9375 22.5247 16.1413 23.4206 16.4296C24.3164 16.7186 25.1525 17.0722 25.9289 17.4902C26.6456 17.8884 27.193 18.3311 27.5713 18.8185C27.9495 19.3066 28.1386 19.8393 28.1386 20.4166V22.8055C28.1386 23.1439 28.024 23.4274 27.7946 23.656C27.5661 23.8853 27.2826 24 26.9442 24H22.7935ZM11.4164 14.4444C10.1025 14.4444 8.97774 13.9766 8.04209 13.0409C7.10644 12.1053 6.63862 10.9805 6.63862 9.66663C6.63862 8.35274 7.10644 7.22798 8.04209 6.29233C8.97774 5.35668 10.1025 4.88885 11.4164 4.88885C12.7303 4.88885 13.8551 5.35668 14.7907 6.29233C15.7263 7.22798 16.1942 8.35274 16.1942 9.66663C16.1942 10.9805 15.7263 12.1053 14.7907 13.0409C13.8551 13.9766 12.7303 14.4444 11.4164 14.4444ZM23.3608 9.66663C23.3608 10.9805 22.893 12.1053 21.9574 13.0409C21.0217 13.9766 19.8969 14.4444 18.5831 14.4444C18.3641 14.4444 18.0854 14.4197 17.747 14.3704C17.4085 14.3202 17.1298 14.2652 16.9108 14.2055C17.4483 13.5685 17.8612 12.8618 18.1495 12.0854C18.4385 11.309 18.5831 10.5027 18.5831 9.66663C18.5831 8.83052 18.4385 8.02427 18.1495 7.24788C17.8612 6.47149 17.4483 5.76478 16.9108 5.12774C17.1895 5.02821 17.4682 4.96331 17.747 4.93305C18.0257 4.90359 18.3044 4.88885 18.5831 4.88885C19.8969 4.88885 21.0217 5.35668 21.9574 6.29233C22.893 7.22798 23.3608 8.35274 23.3608 9.66663ZM4.24973 21.6111H18.5831V20.6555C18.5831 20.4365 18.5285 20.2375 18.4194 20.0583C18.3095 19.8791 18.165 19.7398 17.9858 19.6402C16.9108 19.1027 15.8259 18.6994 14.731 18.4303C13.6361 18.1619 12.5312 18.0277 11.4164 18.0277C10.3016 18.0277 9.19672 18.1619 8.10181 18.4303C7.0069 18.6994 5.92195 19.1027 4.84695 19.6402C4.66778 19.7398 4.52365 19.8791 4.41456 20.0583C4.30467 20.2375 4.24973 20.4365 4.24973 20.6555V21.6111ZM11.4164 12.0555C12.0733 12.0555 12.6359 11.8214 13.1041 11.3532C13.5716 10.8858 13.8053 10.3236 13.8053 9.66663C13.8053 9.00969 13.5716 8.4475 13.1041 7.98008C12.6359 7.51185 12.0733 7.27774 11.4164 7.27774C10.7595 7.27774 10.1973 7.51185 9.72984 7.98008C9.26162 8.4475 9.02751 9.00969 9.02751 9.66663C9.02751 10.3236 9.26162 10.8858 9.72984 11.3532C10.1973 11.8214 10.7595 12.0555 11.4164 12.0555Z" fill="#929292"/>
</g>
</svg>
