<svg width="24" height="29" viewBox="0 0 24 29" fill="none" xmlns="http://www.w3.org/2000/svg">
<rect width="20" height="29" rx="10" transform="matrix(-1 0 0 1 21 0)" fill="white"/>
<path d="M6.98698 18.386C6.72018 18.386 6.54038 18.4121 6.44758 18.4382V20.1463C6.55778 20.1724 6.69553 20.1797 6.88548 20.1797C7.58003 20.1797 8.00778 19.8288 8.00778 19.2372C8.00778 18.705 7.63948 18.386 6.98698 18.386ZM12.0431 18.4034C11.7531 18.4034 11.5646 18.4295 11.453 18.4556V22.2401C11.5646 22.2662 11.7444 22.2662 11.9068 22.2662C13.0915 22.2749 13.8629 21.6224 13.8629 20.242C13.8716 19.0385 13.1683 18.4034 12.0431 18.4034Z" fill="#F34646"/>
<path d="M15.2998 0H3.6998C2.93068 0 2.19305 0.305535 1.64919 0.84939C1.10534 1.39325 0.799805 2.13087 0.799805 2.9V26.1C0.799805 26.8691 1.10534 27.6068 1.64919 28.1506C2.19305 28.6945 2.93068 29 3.6998 29H21.0998C21.8689 29 22.6066 28.6945 23.1504 28.1506C23.6943 27.6068 23.9998 26.8691 23.9998 26.1V8.7L15.2998 0ZM8.7719 20.5755C8.32385 20.996 7.66265 21.1845 6.8927 21.1845C6.74341 21.1861 6.59419 21.1774 6.44611 21.1584V23.2261H5.1498V17.5189C5.73415 17.4319 6.32575 17.3913 6.91735 17.4C7.725 17.4 8.2992 17.5537 8.68636 17.8626C9.05466 18.1555 9.30405 18.6354 9.30405 19.2009C9.3026 19.7693 9.11411 20.2493 8.7719 20.5755ZM14.2921 22.5403C13.6831 23.0463 12.7565 23.287 11.6241 23.287C10.9455 23.287 10.4655 23.2435 10.1393 23.2V17.5203C10.7245 17.4349 11.3154 17.3947 11.9068 17.4C13.0045 17.4 13.7179 17.5972 14.2747 18.0177C14.8764 18.4643 15.2534 19.1763 15.2534 20.1985C15.2534 21.3049 14.8489 22.069 14.2921 22.5403ZM19.6498 18.5165H17.4284V19.8375H19.5048V20.9018H17.4284V23.2275H16.1147V17.4435H19.6498V18.5165ZM13.8498 10.15V2.9L21.0998 10.15H13.8498Z" fill="#F34646"/>
</svg>
