<svg width="144" height="25" viewBox="0 0 144 25" fill="none" xmlns="http://www.w3.org/2000/svg">
<path d="M51.1312 2.33051C50.9717 2.33029 50.8137 2.35573 50.6662 2.40539C50.5187 2.45505 50.3847 2.52795 50.2718 2.61991C50.1589 2.71188 50.0693 2.8211 50.0082 2.94134C49.9471 3.06158 49.9156 3.19047 49.9156 3.32064V19.5698C49.9158 19.8323 50.0437 20.0841 50.2713 20.2697C50.4988 20.4554 50.8074 20.5598 51.1292 20.5599V20.5599C51.451 20.5598 51.7595 20.4554 51.9871 20.2697C52.2146 20.0841 52.3425 19.8323 52.3427 19.5698V3.32064C52.3427 3.05833 52.2151 2.80674 51.988 2.62111C51.7609 2.43547 51.4527 2.33096 51.1312 2.33051V2.33051Z" fill="#929292"/>
<path d="M56.1325 5.30073C55.8108 5.30073 55.5023 5.40499 55.2748 5.59057C55.0474 5.77615 54.9196 6.02785 54.9196 6.2903V16.6021C54.9195 16.7321 54.9508 16.8608 55.0117 16.981C55.0727 17.1011 55.162 17.2102 55.2746 17.3022C55.3872 17.3941 55.521 17.4671 55.6682 17.5168C55.8154 17.5666 55.9731 17.5922 56.1325 17.5922V17.5922C56.4543 17.5922 56.763 17.4879 56.9906 17.3022C57.2181 17.1165 57.346 16.8647 57.346 16.6021V6.2903C57.3458 6.0278 57.2179 5.7761 56.9903 5.59054C56.7627 5.40497 56.4542 5.30073 56.1325 5.30073V5.30073Z" fill="#929292"/>
<path d="M61.1346 3.40256C60.8128 3.40271 60.5043 3.50709 60.2769 3.69276C60.0495 3.87843 59.9217 4.13019 59.9217 4.39269V18.4986C59.9217 18.761 60.0495 19.0127 60.277 19.1983C60.5044 19.3839 60.8129 19.4882 61.1346 19.4882C61.2939 19.4882 61.4517 19.4627 61.5989 19.413C61.7462 19.3633 61.8799 19.2904 61.9926 19.1985C62.1053 19.1066 62.1947 18.9975 62.2557 18.8774C62.3167 18.7573 62.3481 18.6286 62.3481 18.4986V4.39269C62.3481 4.13009 62.2203 3.87825 61.9927 3.69256C61.7651 3.50687 61.4564 3.40256 61.1346 3.40256Z" fill="#929292"/>
<path d="M66.1364 2.36356e-05C65.8145 2.36356e-05 65.5059 0.104344 65.2783 0.29003C65.0507 0.475716 64.9228 0.72756 64.9228 0.99016V21.9016C64.9228 22.0316 64.9542 22.1603 65.0152 22.2804C65.0762 22.4005 65.1656 22.5096 65.2783 22.6015C65.391 22.6934 65.5248 22.7663 65.672 22.816C65.8193 22.8657 65.977 22.8912 66.1364 22.8912C66.458 22.8912 66.7665 22.7869 66.994 22.6013C67.2214 22.4158 67.3492 22.1641 67.3492 21.9016V0.99016C67.3492 0.727658 67.2215 0.475895 66.994 0.290225C66.7666 0.104555 66.4581 0.0001727 66.1364 2.36356e-05V2.36356e-05Z" fill="#929292"/>
<path d="M71.1404 6.86715C70.8185 6.86715 70.5099 6.97146 70.2823 7.15715C70.0547 7.34284 69.9268 7.59468 69.9268 7.85728V15.0339C69.9268 15.1639 69.9582 15.2927 70.0192 15.4127C70.0802 15.5328 70.1696 15.642 70.2823 15.7339C70.395 15.8258 70.5288 15.8986 70.676 15.9483C70.8233 15.998 70.981 16.0236 71.1404 16.0235V16.0235C71.462 16.0235 71.7705 15.9192 71.998 15.7337C72.2254 15.5481 72.3532 15.2964 72.3532 15.0339V7.85728C72.3532 7.59478 72.2255 7.34302 71.998 7.15735C71.7706 6.97168 71.4621 6.8673 71.1404 6.86715Z" fill="#929292"/>
<path d="M1.21352 6.86715C0.891671 6.86715 0.583003 6.97146 0.355421 7.15715C0.127838 7.34284 -1.52588e-05 7.59468 -1.52588e-05 7.85728V15.0339C-1.52845e-05 15.1639 0.0313803 15.2927 0.0923747 15.4127C0.153369 15.5328 0.242766 15.642 0.355463 15.7339C0.468159 15.8258 0.601945 15.8986 0.749174 15.9483C0.896403 15.998 1.05419 16.0236 1.21352 16.0235V16.0235C1.53519 16.0235 1.84368 15.9192 2.07113 15.7337C2.29859 15.5481 2.42637 15.2964 2.42637 15.0339V7.85728C2.42637 7.59478 2.29861 7.34302 2.07118 7.15735C1.84374 6.97168 1.53525 6.8673 1.21352 6.86715Z" fill="#929292"/>
<path d="M76.4635 17.5913H75.815C75.3241 17.5913 74.9261 17.2665 74.9261 16.866V6.02564C74.9261 5.62506 75.3241 5.30033 75.815 5.30033H76.4635C76.9545 5.30033 77.3525 5.62506 77.3525 6.02564V16.866C77.3525 17.2665 76.9545 17.5913 76.4635 17.5913Z" fill="#929292"/>
<path d="M86.4639 17.5909H85.8154C85.3245 17.5909 84.9265 17.2661 84.9265 16.8655V6.02521C84.9265 5.62463 85.3245 5.2999 85.8154 5.2999H86.4639C86.9548 5.2999 87.3528 5.62463 87.3528 6.02521V16.8655C87.3528 17.2661 86.9548 17.5909 86.4639 17.5909Z" fill="#929292"/>
<path d="M6.53667 17.5913H5.8882C5.39724 17.5913 4.99924 17.2665 4.99924 16.866V6.02568C4.99924 5.6251 5.39724 5.30037 5.8882 5.30037H6.53667C7.02763 5.30037 7.42563 5.6251 7.42563 6.02568V16.866C7.42563 17.2665 7.02763 17.5913 6.53667 17.5913Z" fill="#929292"/>
<path d="M81.2719 20.5609H81.0108C80.4129 20.5609 79.9282 20.1654 79.9282 19.6775V3.21354C79.9282 2.72571 80.4129 2.33024 81.0108 2.33024H81.2719C81.8698 2.33024 82.3545 2.72571 82.3545 3.21354V19.6775C82.3545 20.1654 81.8698 20.5609 81.2719 20.5609Z" fill="#929292"/>
<path d="M11.3451 20.5609H11.0839C10.486 20.5609 10.0013 20.1654 10.0013 19.6775V3.21358C10.0013 2.72575 10.486 2.33028 11.0839 2.33028H11.3451C11.943 2.33028 12.4277 2.72575 12.4277 3.21358V19.6775C12.4277 20.1654 11.943 20.5609 11.3451 20.5609Z" fill="#929292"/>
<path d="M16.2163 6.61026e-05C15.8945 0.000215167 15.586 0.104598 15.3586 0.290267C15.1312 0.475937 15.0034 0.727699 15.0034 0.990201V21.9016C15.0034 22.1641 15.1312 22.4158 15.3587 22.6013C15.5861 22.7869 15.8946 22.8912 16.2163 22.8912V22.8912C16.3756 22.8912 16.5334 22.8657 16.6806 22.816C16.8279 22.7663 16.9616 22.6934 17.0743 22.6015C17.187 22.5096 17.2764 22.4005 17.3374 22.2804C17.3984 22.1603 17.4298 22.0316 17.4298 21.9016V0.990201C17.4298 0.727601 17.302 0.475757 17.0744 0.290072C16.8468 0.104386 16.5381 6.61026e-05 16.2163 6.61026e-05Z" fill="#929292"/>
<path d="M21.4148 19.4882H21.0226C20.4609 19.4882 20.0055 19.1166 20.0055 18.6583V4.23245C20.0055 3.77411 20.4609 3.40256 21.0226 3.40256H21.4148C21.9765 3.40256 22.4319 3.77411 22.4319 4.23245V18.6583C22.4319 19.1166 21.9765 19.4882 21.4148 19.4882Z" fill="#929292"/>
<path d="M26.5441 17.5913H25.8956C25.4047 17.5913 25.0067 17.2665 25.0067 16.866V6.02568C25.0067 5.6251 25.4047 5.30037 25.8956 5.30037H26.5441C27.035 5.30037 27.433 5.6251 27.433 6.02568V16.866C27.433 17.2665 27.035 17.5913 26.5441 17.5913Z" fill="#929292"/>
<path d="M31.6681 16.0235H30.7757C30.3521 16.0235 30.0087 15.7433 30.0087 15.3977V7.49294C30.0087 7.14732 30.3521 6.86715 30.7757 6.86715H31.6681C32.0917 6.86715 32.4351 7.14732 32.4351 7.49294V15.3977C32.4351 15.7433 32.0917 16.0235 31.6681 16.0235Z" fill="#929292"/>
<path d="M36.2208 6.74703e-05C35.8991 0.000216534 35.5906 0.1046 35.3632 0.290269C35.1358 0.475939 35.008 0.7277 35.008 0.990202V21.9016C35.008 22.1641 35.1358 22.4158 35.3632 22.6013C35.5907 22.7869 35.8992 22.8912 36.2208 22.8912C36.3802 22.8912 36.538 22.8657 36.6852 22.816C36.8324 22.7663 36.9662 22.6934 37.0789 22.6015C37.1916 22.5096 37.281 22.4005 37.342 22.2804C37.403 22.1603 37.4344 22.0316 37.4344 21.9016V0.990202C37.4344 0.727603 37.3065 0.475759 37.079 0.290073C36.8514 0.104388 36.5427 6.74703e-05 36.2208 6.74703e-05Z" fill="#929292"/>
<path d="M41.2248 6.86715C40.9031 6.8673 40.5946 6.97168 40.3672 7.15735C40.1397 7.34302 40.012 7.59478 40.012 7.85728V15.0339C40.012 15.2964 40.1398 15.5481 40.3672 15.7337C40.5947 15.9192 40.9032 16.0235 41.2248 16.0235V16.0235C41.3842 16.0236 41.542 15.998 41.6892 15.9483C41.8364 15.8986 41.9702 15.8258 42.0829 15.7339C42.1956 15.642 42.285 15.5328 42.346 15.4127C42.407 15.2927 42.4384 15.1639 42.4384 15.0339V7.85728C42.4384 7.59468 42.3105 7.34284 42.0829 7.15715C41.8554 6.97146 41.5467 6.86715 41.2248 6.86715Z" fill="#929292"/>
<path d="M46.2276 8.72297C45.9058 8.72297 45.5971 8.82728 45.3695 9.01297C45.1419 9.19866 45.0141 9.45051 45.0141 9.71312V13.1778C45.0141 13.3078 45.0455 13.4365 45.1065 13.5566C45.1675 13.6767 45.2569 13.7858 45.3695 13.8777C45.4822 13.9696 45.616 14.0425 45.7633 14.0922C45.9105 14.1419 46.0683 14.1675 46.2276 14.1674V14.1674C46.5493 14.1674 46.8578 14.0631 47.0852 13.8775C47.3127 13.692 47.4405 13.4403 47.4405 13.1778V9.71312C47.4405 9.45061 47.3127 9.19885 47.0853 9.01317C46.8578 8.8275 46.5493 8.72312 46.2276 8.72297Z" fill="#929292"/>
<path d="M92.2966 20.5606H92.0354C91.4375 20.5606 90.9528 20.1651 90.9528 19.6773V3.21327C90.9528 2.72543 91.4375 2.32996 92.0354 2.32996H92.2966C92.8945 2.32996 93.3792 2.72543 93.3792 3.21327V19.6773C93.3792 20.1651 92.8945 20.5606 92.2966 20.5606Z" fill="#929292"/>
<path d="M97.1676 6.18656C96.846 6.18656 96.5375 6.29082 96.31 6.4764C96.0826 6.66198 95.9548 6.91368 95.9548 7.17613V15.714C95.9547 15.844 95.986 15.9727 96.0469 16.0929C96.1078 16.213 96.1971 16.3221 96.3098 16.4141C96.4224 16.506 96.5561 16.579 96.7033 16.6288C96.8505 16.6785 97.0083 16.7041 97.1676 16.7041V16.7041C97.327 16.7042 97.4848 16.6786 97.6321 16.6289C97.7794 16.5792 97.9132 16.5063 98.0259 16.4143C98.1386 16.3223 98.228 16.2132 98.2889 16.093C98.3499 15.9728 98.3812 15.844 98.3811 15.714V7.17613C98.3811 7.04613 98.3498 6.91741 98.2888 6.79731C98.2278 6.67721 98.1384 6.5681 98.0257 6.4762C97.913 6.3843 97.7792 6.31142 97.632 6.26173C97.4847 6.21203 97.327 6.18649 97.1676 6.18656Z" fill="#929292"/>
<path d="M102.17 0.000481399C101.848 0.000481399 101.54 0.104801 101.312 0.290488C101.085 0.476174 100.957 0.728018 100.957 0.990618V21.9021C100.957 22.0321 100.988 22.1608 101.049 22.2809C101.11 22.401 101.2 22.5101 101.312 22.602C101.425 22.6939 101.559 22.7668 101.706 22.8165C101.853 22.8662 102.011 22.8917 102.17 22.8916C102.492 22.8916 102.8 22.7874 103.028 22.6018C103.255 22.4162 103.383 22.1645 103.383 21.9021V0.990618C103.383 0.728115 103.255 0.476353 103.028 0.290683C102.8 0.105013 102.492 0.000630464 102.17 0.000481399V0.000481399Z" fill="#929292"/>
<path d="M107.169 0.000481399C106.847 0.000630366 106.539 0.104995 106.311 0.290649C106.084 0.476303 105.956 0.728064 105.956 0.990618V21.9021C105.956 22.1646 106.084 22.4163 106.311 22.6018C106.539 22.7874 106.848 22.8916 107.169 22.8916C107.491 22.8916 107.799 22.7874 108.027 22.6018C108.254 22.4162 108.382 22.1645 108.382 21.9021V0.990618C108.382 0.728115 108.254 0.476353 108.027 0.290683C107.799 0.105013 107.491 0.000630464 107.169 0.000481399V0.000481399Z" fill="#929292"/>
<path d="M112.223 16.085H112.123C111.48 16.085 110.96 15.6601 110.96 15.1359V7.75407C110.96 7.22991 111.48 6.80499 112.123 6.80499H112.223C112.865 6.80499 113.386 7.22991 113.386 7.75407V15.1359C113.386 15.6601 112.865 16.085 112.223 16.085Z" fill="#929292"/>
<path d="M117.175 0.000481399C116.854 0.000630464 116.545 0.105013 116.318 0.290683C116.09 0.476353 115.963 0.728115 115.963 0.990618V21.9021C115.963 22.1645 116.09 22.4162 116.318 22.6018C116.545 22.7874 116.854 22.8916 117.175 22.8916V22.8916C117.335 22.8917 117.493 22.8662 117.64 22.8165C117.787 22.7668 117.921 22.6939 118.034 22.602C118.146 22.5101 118.236 22.401 118.297 22.2809C118.358 22.1608 118.389 22.0321 118.389 21.9021V0.990618C118.389 0.728018 118.261 0.476174 118.034 0.290488C117.806 0.104801 117.497 0.000481399 117.175 0.000481399V0.000481399Z" fill="#929292"/>
<path d="M122.177 2.3302C122.018 2.3302 121.86 2.35582 121.713 2.40558C121.566 2.45535 121.432 2.52829 121.32 2.62024C121.207 2.71219 121.118 2.82134 121.057 2.94147C120.996 3.06159 120.964 3.19033 120.965 3.32033V19.5695C120.965 19.832 121.092 20.0837 121.32 20.2694C121.547 20.4551 121.856 20.5595 122.177 20.5596V20.5596C122.499 20.5596 122.808 20.4553 123.035 20.2696C123.263 20.0839 123.391 19.8321 123.391 19.5695V3.32033C123.391 3.19028 123.36 3.0615 123.299 2.94134C123.238 2.82118 123.148 2.712 123.036 2.62004C122.923 2.52808 122.789 2.45516 122.642 2.40542C122.495 2.35569 122.337 2.33013 122.177 2.3302Z" fill="#929292"/>
<path d="M128.392 19.5704C128.392 20.1173 127.849 20.5606 127.179 20.5606C126.509 20.5606 125.966 20.1173 125.966 19.5704V3.3201C125.966 2.77326 126.509 2.32996 127.179 2.32996C127.849 2.32996 128.392 2.77326 128.392 3.3201V19.5704Z" fill="#929292"/>
<path d="M137.182 4.68206C136.861 4.68221 136.552 4.78659 136.325 4.97226C136.097 5.15793 135.969 5.40969 135.969 5.6722V17.2204C135.969 17.4829 136.097 17.7346 136.325 17.9202C136.552 18.1057 136.861 18.21 137.182 18.21V18.21C137.504 18.21 137.813 18.1058 138.04 17.9202C138.268 17.7346 138.396 17.4829 138.396 17.2204V5.67163C138.395 5.40918 138.267 5.15756 138.04 4.97203C137.812 4.7865 137.504 4.68221 137.182 4.68206V4.68206Z" fill="#929292"/>
<path d="M142.184 8.68196C142.025 8.68196 141.867 8.70758 141.72 8.75734C141.573 8.80711 141.439 8.88005 141.326 8.972C141.214 9.06395 141.124 9.17311 141.064 9.29324C141.003 9.41337 140.971 9.54211 140.971 9.67211V13.2189C140.971 13.3489 141.003 13.4776 141.064 13.5977C141.124 13.7179 141.214 13.827 141.326 13.919C141.439 14.0109 141.573 14.0839 141.72 14.1336C141.867 14.1834 142.025 14.209 142.184 14.209V14.209C142.344 14.2091 142.501 14.1835 142.649 14.1338C142.796 14.0841 142.93 14.0111 143.043 13.9192C143.155 13.8272 143.245 13.718 143.306 13.5979C143.367 13.4777 143.398 13.3489 143.398 13.2189V9.67211C143.398 9.54206 143.367 9.41327 143.306 9.29311C143.245 9.17295 143.155 9.06376 143.043 8.9718C142.93 8.87985 142.796 8.80691 142.649 8.75718C142.501 8.70745 142.344 8.68189 142.184 8.68196Z" fill="#929292"/>
<g filter="url(#filter0_d_2001_4)">
<path d="M132.181 6.86712C131.859 6.86726 131.551 6.97163 131.323 7.15728C131.096 7.34294 130.968 7.59469 130.967 7.85725V15.0339C130.968 15.2964 131.096 15.5481 131.323 15.7337C131.551 15.9192 131.859 16.0235 132.181 16.0235V16.0235C132.503 16.0235 132.811 15.9192 133.039 15.7336C133.266 15.548 133.394 15.2963 133.394 15.0339V7.85725C133.394 7.59475 133.266 7.34299 133.039 7.15732C132.811 6.97165 132.503 6.86726 132.181 6.86712V6.86712Z" fill="#929292"/>
</g>
<defs>
<filter id="filter0_d_2001_4" x="126.967" y="6.86713" width="10.4263" height="17.1563" filterUnits="userSpaceOnUse" color-interpolation-filters="sRGB">
<feFlood flood-opacity="0" result="BackgroundImageFix"/>
<feColorMatrix in="SourceAlpha" type="matrix" values="0 0 0 0 0 0 0 0 0 0 0 0 0 0 0 0 0 0 127 0" result="hardAlpha"/>
<feOffset dy="4"/>
<feGaussianBlur stdDeviation="2"/>
<feComposite in2="hardAlpha" operator="out"/>
<feColorMatrix type="matrix" values="0 0 0 0 0 0 0 0 0 0 0 0 0 0 0 0 0 0 0.25 0"/>
<feBlend mode="normal" in2="BackgroundImageFix" result="effect1_dropShadow_2001_4"/>
<feBlend mode="normal" in="SourceGraphic" in2="effect1_dropShadow_2001_4" result="shape"/>
</filter>
</defs>
</svg>
