<svg width="29" height="29" viewBox="0 0 29 29" fill="none" xmlns="http://www.w3.org/2000/svg">
<mask id="mask0_125_2188" style="mask-type:alpha" maskUnits="userSpaceOnUse" x="0" y="0" width="29" height="29">
<rect y="0.111084" width="28.6667" height="28.6667" fill="#D9D9D9"/>
</mask>
<g mask="url(#mask0_125_2188)">
<path d="M16.5733 26.3889H12.0942C11.7956 26.3889 11.5368 26.2894 11.3178 26.0903C11.0988 25.8912 10.9694 25.6424 10.9296 25.3438L10.5713 22.5667C10.3125 22.4671 10.0688 22.3477 9.84026 22.2083C9.61093 22.069 9.38677 21.9197 9.16779 21.7604L6.56987 22.8354C6.29117 22.935 6.01247 22.9449 5.73376 22.8653C5.45506 22.7856 5.23608 22.6164 5.07682 22.3576L2.8671 18.5056C2.70784 18.2468 2.65807 17.9681 2.71779 17.6694C2.77751 17.3708 2.92682 17.1319 3.16571 16.9528L5.40529 15.2507C5.38538 15.1113 5.37543 14.9768 5.37543 14.847V14.0407C5.37543 13.9117 5.38538 13.7775 5.40529 13.6382L3.16571 11.9361C2.92682 11.7569 2.77751 11.5181 2.71779 11.2194C2.65807 10.9208 2.70784 10.6421 2.8671 10.3833L5.07682 6.53125C5.21617 6.25255 5.42998 6.07816 5.71824 6.00808C6.00729 5.93881 6.29117 5.95393 6.56987 6.05347L9.16779 7.12847C9.38677 6.96921 9.61571 6.81991 9.8546 6.68056C10.0935 6.5412 10.3324 6.42176 10.5713 6.32222L10.9296 3.54514C10.9694 3.24653 11.0988 2.99769 11.3178 2.79861C11.5368 2.59954 11.7956 2.5 12.0942 2.5H16.5733C16.872 2.5 17.1308 2.59954 17.3497 2.79861C17.5687 2.99769 17.6981 3.24653 17.7379 3.54514L18.0963 6.32222C18.3551 6.42176 18.5991 6.5412 18.8285 6.68056C19.057 6.81991 19.2808 6.96921 19.4997 7.12847L22.0977 6.05347C22.3764 5.95393 22.6551 5.94398 22.9338 6.02361C23.2125 6.10324 23.4314 6.27245 23.5907 6.53125L25.8004 10.3833C25.9597 10.6421 26.0095 10.9208 25.9497 11.2194C25.89 11.5181 25.7407 11.7569 25.5018 11.9361L23.2622 13.6382C23.2821 13.7775 23.2921 13.9117 23.2921 14.0407V14.847C23.2921 14.9768 23.2722 15.1113 23.2324 15.2507L25.472 16.9528C25.7108 17.1319 25.8602 17.3708 25.9199 17.6694C25.9796 17.9681 25.9298 18.2468 25.7706 18.5056L23.5608 22.3278C23.4016 22.5866 23.1778 22.761 22.8896 22.8509C22.6005 22.9401 22.3166 22.935 22.0379 22.8354L19.4997 21.7604C19.2808 21.9197 19.0518 22.069 18.8129 22.2083C18.574 22.3477 18.3352 22.4671 18.0963 22.5667L17.7379 25.3438C17.6981 25.6424 17.5687 25.8912 17.3497 26.0903C17.1308 26.2894 16.872 26.3889 16.5733 26.3889ZM14.3935 18.625C15.5481 18.625 16.5335 18.2169 17.3497 17.4007C18.1659 16.5845 18.574 15.5991 18.574 14.4444C18.574 13.2898 18.1659 12.3044 17.3497 11.4882C16.5335 10.672 15.5481 10.2639 14.3935 10.2639C13.2189 10.2639 12.2284 10.672 11.4217 11.4882C10.6159 12.3044 10.2129 13.2898 10.2129 14.4444C10.2129 15.5991 10.6159 16.5845 11.4217 17.4007C12.2284 18.2169 13.2189 18.625 14.3935 18.625ZM14.3935 16.2361C13.8958 16.2361 13.473 16.0617 13.125 15.7129C12.7762 15.365 12.6018 14.9421 12.6018 14.4444C12.6018 13.9468 12.7762 13.5239 13.125 13.1759C13.473 12.8272 13.8958 12.6528 14.3935 12.6528C14.8912 12.6528 15.3144 12.8272 15.6632 13.1759C16.0112 13.5239 16.1852 13.9468 16.1852 14.4444C16.1852 14.9421 16.0112 15.365 15.6632 15.7129C15.3144 16.0617 14.8912 16.2361 14.3935 16.2361ZM13.1393 24H15.4983L15.9164 20.8347C16.5335 20.6755 17.1061 20.4414 17.634 20.1324C18.1612 19.8242 18.6437 19.4512 19.0817 19.0132L22.0379 20.2375L23.2025 18.2069L20.6345 16.266C20.734 15.9873 20.8037 15.6934 20.8435 15.3845C20.8833 15.0763 20.9032 14.763 20.9032 14.4444C20.9032 14.1259 20.8833 13.8122 20.8435 13.5032C20.8037 13.1951 20.734 12.9016 20.6345 12.6229L23.2025 10.6819L22.0379 8.65139L19.0817 9.90556C18.6437 9.44768 18.1612 9.06427 17.634 8.75531C17.1061 8.44714 16.5335 8.21343 15.9164 8.05417L15.5282 4.88889H13.1692L12.7511 8.05417C12.134 8.21343 11.5619 8.44714 11.0347 8.75531C10.5068 9.06427 10.0238 9.43773 9.58585 9.87569L6.6296 8.65139L5.46501 10.6819L8.03307 12.5931C7.93353 12.8917 7.86386 13.1903 7.82404 13.4889C7.78423 13.7875 7.76432 14.106 7.76432 14.4444C7.76432 14.763 7.78423 15.0715 7.82404 15.3701C7.86386 15.6687 7.93353 15.9674 8.03307 16.266L5.46501 18.2069L6.6296 20.2375L9.58585 18.9833C10.0238 19.4412 10.5068 19.8242 11.0347 20.1324C11.5619 20.4414 12.134 20.6755 12.7511 20.8347L13.1393 24Z" fill="#929292"/>
</g>
</svg>
