<svg width="56" height="56" viewBox="0 0 56 56" fill="none" xmlns="http://www.w3.org/2000/svg">
<path d="M0 28C0 12.536 12.536 0 28 0C43.464 0 56 12.536 56 28C56 43.464 43.464 56 28 56C12.536 56 0 43.464 0 28Z" fill="#0151A3" fill-opacity="0.12"/>
<path d="M28.0002 32.9552C27.3926 32.9552 26.9875 32.5493 26.9875 31.9404V25.8513C26.9875 25.2424 27.3926 24.8365 28.0002 24.8365C28.6079 24.8365 29.013 25.2424 29.013 25.8513V31.9404C29.013 32.5493 28.6079 32.9552 28.0002 32.9552Z" fill="url(#paint0_linear_125_3067)"/>
<path d="M28.0002 23.8216C28.5596 23.8216 29.013 23.3672 29.013 22.8068C29.013 22.2463 28.5596 21.7919 28.0002 21.7919C27.4409 21.7919 26.9875 22.2463 26.9875 22.8068C26.9875 23.3672 27.4409 23.8216 28.0002 23.8216Z" fill="url(#paint1_linear_125_3067)"/>
<path d="M16.2525 40.871C15.9486 40.668 15.8474 40.2621 15.8474 39.8561L16.7588 34.6804C13.0117 28.4899 15.0372 20.3711 21.2149 16.7177C27.3926 13.0642 35.4945 14.9924 39.2417 21.183C42.9888 27.3735 40.9633 35.4923 34.7856 39.2472C30.7346 41.6829 25.5697 41.7843 21.5187 39.3487L17.3665 41.074C16.8601 41.1754 16.5563 41.074 16.2525 40.871ZM21.5187 37.2175C21.7213 37.2175 21.9238 37.319 22.0251 37.4205C27.2913 40.7695 34.178 39.1457 37.4187 33.97C40.6595 28.7943 39.1404 21.7919 33.9754 18.5444C28.8104 15.2969 21.9238 16.6162 18.5818 21.8934C16.2525 25.5468 16.2525 30.3166 18.5818 33.97C18.683 34.173 18.7843 34.4775 18.683 34.6804L18.0754 38.4354L21.0123 37.2175H21.5187Z" fill="url(#paint2_linear_125_3067)"/>
<defs>
<linearGradient id="paint0_linear_125_3067" x1="46.2633" y1="27.9458" x2="14.875" y2="27.98" gradientUnits="userSpaceOnUse">
<stop stop-color="#0073DE"/>
<stop offset="1" stop-color="#033675"/>
</linearGradient>
<linearGradient id="paint1_linear_125_3067" x1="46.2633" y1="27.9458" x2="14.875" y2="27.98" gradientUnits="userSpaceOnUse">
<stop stop-color="#0073DE"/>
<stop offset="1" stop-color="#033675"/>
</linearGradient>
<linearGradient id="paint2_linear_125_3067" x1="46.2633" y1="27.9458" x2="14.875" y2="27.98" gradientUnits="userSpaceOnUse">
<stop stop-color="#0073DE"/>
<stop offset="1" stop-color="#033675"/>
</linearGradient>
</defs>
</svg>
