<svg width="56" height="56" viewBox="0 0 56 56" fill="none" xmlns="http://www.w3.org/2000/svg">
<path d="M0 28C0 12.536 12.536 0 28 0C43.464 0 56 12.536 56 28C56 43.464 43.464 56 28 56C12.536 56 0 43.464 0 28Z" fill="#0151A3" fill-opacity="0.12"/>
<path d="M37.8995 18.1005C35.2553 15.4563 31.7395 14 28 14C24.2605 14 20.7447 15.4563 18.1005 18.1005C15.4563 20.7447 14 24.2605 14 28C14 31.7395 15.4563 35.2553 18.1005 37.8995C20.7447 40.5437 24.2605 42 28 42C31.7395 42 35.2553 40.5437 37.8995 37.8995C40.5437 35.2553 42 31.7395 42 28C42 24.2605 40.5437 20.7447 37.8995 18.1005ZM20.0761 37.4772C20.5384 33.4995 23.9583 30.4285 28 30.4285C30.1306 30.4285 32.1343 31.2586 33.6413 32.7655C34.9145 34.0389 35.7176 35.7015 35.9241 37.477C33.7772 39.275 31.013 40.3594 28 40.3594C24.987 40.3594 22.223 39.2752 20.0761 37.4772ZM28 28.7387C25.6555 28.7387 23.7478 26.8311 23.7478 24.4865C23.7478 22.1418 25.6555 20.2344 28 20.2344C30.3445 20.2344 32.2522 22.1418 32.2522 24.4865C32.2522 26.8311 30.3445 28.7387 28 28.7387V28.7387ZM37.3362 36.0901C36.9147 34.3926 36.0383 32.8422 34.8013 31.6055C33.793 30.5972 32.6001 29.8408 31.2992 29.3668C32.8631 28.3061 33.8928 26.5142 33.8928 24.4865C33.8928 21.2373 31.2492 18.5938 28 18.5938C24.7508 18.5938 22.1072 21.2373 22.1072 24.4865C22.1072 26.5153 23.1377 28.3078 24.7029 29.3683C23.506 29.8045 22.3984 30.4789 21.4454 31.3667C20.0654 32.6518 19.1071 34.2905 18.6628 36.0888C16.781 33.9195 15.6406 31.0905 15.6406 28C15.6406 21.185 21.185 15.6406 28 15.6406C34.815 15.6406 40.3594 21.185 40.3594 28C40.3594 31.0911 39.2186 33.9208 37.3362 36.0901Z" fill="url(#paint0_linear_125_3017)"/>
<defs>
<linearGradient id="paint0_linear_125_3017" x1="47.4803" y1="27.9419" x2="14" y2="27.9784" gradientUnits="userSpaceOnUse">
<stop stop-color="#0073DE"/>
<stop offset="1" stop-color="#033675"/>
</linearGradient>
</defs>
</svg>
