<svg width="56" height="56" viewBox="0 0 56 56" fill="none" xmlns="http://www.w3.org/2000/svg">
<path d="M0 28C0 12.536 12.536 0 28 0C43.464 0 56 12.536 56 28C56 43.464 43.464 56 28 56C12.536 56 0 43.464 0 28Z" fill="#0151A3" fill-opacity="0.12"/>
<path d="M28.0001 24.4283C25.083 24.4283 22.3335 24.0216 20.2579 23.2837C18.028 22.4903 16.7998 21.3765 16.7998 20.1475C16.7998 18.9185 18.028 17.8042 20.2579 17.0108C22.3335 16.2729 25.083 15.8662 28.0001 15.8662C30.9171 15.8662 33.6661 16.2729 35.7413 17.0108C37.9726 17.8042 39.1993 18.918 39.1993 20.1475C39.1993 21.3769 37.9726 22.4903 35.7413 23.2837C33.6661 24.0216 30.9166 24.4283 28.0001 24.4283ZM28.0001 16.8141C21.9839 16.8141 17.7915 18.5706 17.7915 20.1475C17.7915 21.7243 21.9839 23.4804 28.0001 23.4804C34.0162 23.4804 38.2081 21.7239 38.2081 20.1475C38.2081 18.5711 34.0157 16.8141 28.0001 16.8141ZM28.0001 29.6631C25.083 29.6631 22.3335 29.2565 20.2579 28.5185C18.028 27.7251 16.7998 26.6113 16.7998 25.3819C16.7998 25.2562 16.852 25.1356 16.945 25.0467C17.038 24.9578 17.1641 24.9079 17.2957 24.9079C17.4272 24.9079 17.5533 24.9578 17.6463 25.0467C17.7393 25.1356 17.7915 25.2562 17.7915 25.3819C17.7915 26.9568 21.9839 28.7152 28.0001 28.7152C34.0162 28.7152 38.2081 26.9568 38.2081 25.3819C38.2081 25.2562 38.2603 25.1356 38.3533 25.0467C38.4463 24.9578 38.5724 24.9079 38.704 24.9079C38.8355 24.9079 38.9616 24.9578 39.0546 25.0467C39.1476 25.1356 39.1998 25.2562 39.1998 25.3819C39.1998 26.6113 37.9721 27.7251 35.7418 28.5185C33.6661 29.2565 30.9166 29.6631 28.0001 29.6631ZM28.0001 34.898C25.083 34.898 22.3335 34.4914 20.2579 33.7534C18.028 32.96 16.7998 31.8462 16.7998 30.6167C16.7998 30.491 16.852 30.3705 16.945 30.2816C17.038 30.1927 17.1641 30.1428 17.2957 30.1428C17.4272 30.1428 17.5533 30.1927 17.6463 30.2816C17.7393 30.3705 17.7915 30.491 17.7915 30.6167C17.7915 32.1936 21.9839 33.9501 28.0001 33.9501C34.0162 33.9501 38.2081 32.1936 38.2081 30.6167C38.2081 30.491 38.2603 30.3705 38.3533 30.2816C38.4463 30.1927 38.5724 30.1428 38.704 30.1428C38.8355 30.1428 38.9616 30.1927 39.0546 30.2816C39.1476 30.3705 39.1998 30.491 39.1998 30.6167C39.1998 31.8462 37.9721 32.96 35.7418 33.7534C33.6661 34.4928 30.9166 34.898 28.0001 34.898Z" fill="url(#paint0_linear_125_3047)"/>
<path d="M28.0001 40.1329C25.083 40.1329 22.3335 39.7262 20.2579 38.9878C18.028 38.1949 16.7998 37.0811 16.7998 35.8516V20.1475C16.7998 20.0218 16.852 19.9012 16.945 19.8123C17.038 19.7235 17.1641 19.6735 17.2957 19.6735C17.4272 19.6735 17.5533 19.7235 17.6463 19.8123C17.7393 19.9012 17.7915 20.0218 17.7915 20.1475V35.8516C17.7915 37.4285 21.9839 39.185 28.0001 39.185C34.0162 39.185 38.2081 37.4285 38.2081 35.8516V20.1475C38.2081 20.0218 38.2603 19.9012 38.3533 19.8123C38.4463 19.7235 38.5724 19.6735 38.704 19.6735C38.8355 19.6735 38.9616 19.7235 39.0546 19.8123C39.1476 19.9012 39.1998 20.0218 39.1998 20.1475V35.8516C39.1998 37.0811 37.9721 38.1949 35.7418 38.9878C33.6661 39.7262 30.9166 40.1329 28.0001 40.1329Z" fill="url(#paint1_linear_125_3047)"/>
<path d="M36.2148 25.8563C36.1823 25.8562 36.1499 25.8531 36.1181 25.8468C36.0864 25.8407 36.0553 25.8317 36.0254 25.8198C35.9953 25.808 35.9666 25.7934 35.9396 25.7762C35.8852 25.7419 35.8386 25.6974 35.8027 25.6454C35.7849 25.6195 35.7697 25.592 35.7571 25.5634C35.7447 25.5348 35.7353 25.5051 35.7289 25.4748C35.7156 25.4136 35.7156 25.3506 35.7289 25.2895C35.7413 25.2284 35.7664 25.1702 35.8025 25.1185C35.8387 25.0667 35.8853 25.0224 35.9396 24.988C35.9666 24.9708 35.9953 24.9562 36.0254 24.9444C36.0553 24.9326 36.0864 24.9235 36.1181 24.9174C36.1821 24.9051 36.248 24.9051 36.312 24.9174C36.4078 24.9359 36.4959 24.9809 36.5654 25.0468C36.5883 25.0691 36.609 25.0934 36.6273 25.1193C36.6634 25.1709 36.6885 25.2287 36.7012 25.2895C36.7138 25.3506 36.7138 25.4136 36.7012 25.4748C36.6948 25.5051 36.6854 25.5348 36.673 25.5634C36.6604 25.592 36.6452 25.6195 36.6273 25.6454C36.6092 25.6713 36.5884 25.6954 36.5654 25.7174C36.5424 25.7394 36.5172 25.7591 36.49 25.7762C36.4631 25.7933 36.4345 25.8079 36.4047 25.8198C36.3748 25.8316 36.3437 25.8406 36.312 25.8468C36.28 25.853 36.2474 25.8562 36.2148 25.8563ZM34.2235 26.3322C34.191 26.3321 34.1586 26.3289 34.1268 26.3227C34.095 26.3166 34.064 26.3075 34.034 26.2957C34.004 26.2839 33.9753 26.2693 33.9483 26.2521C33.9211 26.235 33.8958 26.2153 33.8729 26.1933C33.8266 26.1493 33.7901 26.0969 33.7653 26.0393C33.7529 26.0107 33.7434 25.981 33.737 25.9506C33.7305 25.9194 33.7274 25.8877 33.7276 25.8558C33.7274 25.824 33.7306 25.7923 33.737 25.761C33.7436 25.7307 33.753 25.7011 33.7653 25.6724C33.7903 25.615 33.8268 25.5628 33.8729 25.5188C33.8958 25.4967 33.9211 25.4768 33.9483 25.4596C33.9753 25.4424 34.004 25.4278 34.034 25.416C34.064 25.4041 34.095 25.3951 34.1268 25.389C34.1906 25.3767 34.2563 25.3767 34.3202 25.389C34.3519 25.3951 34.383 25.4041 34.4129 25.416C34.4429 25.4278 34.4716 25.4424 34.4987 25.4596C34.5529 25.4943 34.5994 25.5389 34.6355 25.5909C34.6534 25.6166 34.6687 25.6439 34.6811 25.6724C34.6936 25.701 34.7031 25.7307 34.7094 25.761C34.716 25.7922 34.7193 25.824 34.7193 25.8558C34.7194 25.8877 34.7161 25.9194 34.7094 25.9506C34.7032 25.981 34.6938 26.0107 34.6811 26.0393C34.6687 26.0679 34.6534 26.0954 34.6355 26.1212C34.5996 26.1732 34.5531 26.2177 34.4987 26.2521C34.4716 26.2693 34.4429 26.2839 34.4129 26.2957C34.383 26.3075 34.3519 26.3166 34.3202 26.3227C34.2883 26.3289 34.2559 26.3321 34.2235 26.3322ZM32.2321 26.808C32.1988 26.808 32.1656 26.8049 32.133 26.7985C32.1012 26.7923 32.0702 26.7833 32.0402 26.7715C31.9493 26.7362 31.8717 26.6754 31.8176 26.5971C31.7996 26.5713 31.7843 26.5438 31.772 26.5151C31.7596 26.4865 31.7501 26.4568 31.7437 26.4265C31.7374 26.396 31.7342 26.3651 31.7343 26.3341C31.7341 26.3022 31.7373 26.2705 31.7437 26.2393C31.7511 26.209 31.7614 26.1795 31.7745 26.1511C31.7994 26.0938 31.8358 26.0416 31.8816 25.9975C31.9049 25.9756 31.9303 25.9558 31.9574 25.9383C31.9843 25.9212 32.0129 25.9066 32.0427 25.8947C32.0727 25.8829 32.1037 25.8739 32.1354 25.8677C32.1994 25.8554 32.2653 25.8554 32.3293 25.8677C32.3611 25.8738 32.3921 25.8828 32.422 25.8947C32.452 25.9067 32.4807 25.9213 32.5078 25.9383C32.5348 25.9558 32.56 25.9756 32.5832 25.9975C32.6062 26.0195 32.6268 26.0436 32.6447 26.0696C32.6626 26.0953 32.6779 26.1226 32.6903 26.1511C32.7026 26.1798 32.712 26.2094 32.7186 26.2397C32.7252 26.2709 32.7285 26.3027 32.7285 26.3345C32.7284 26.3656 32.7251 26.3965 32.7186 26.427C32.7122 26.4573 32.7027 26.487 32.6903 26.5156C32.678 26.5443 32.6627 26.5718 32.6447 26.5976C32.6268 26.6235 32.6062 26.6477 32.5832 26.6696C32.5601 26.6915 32.5349 26.7112 32.5078 26.7284C32.4807 26.7454 32.452 26.76 32.422 26.772C32.3921 26.7838 32.3611 26.7929 32.3293 26.799C32.2973 26.8051 32.2648 26.8081 32.2321 26.808ZM36.2148 31.0907C36.1823 31.0908 36.1499 31.0878 36.1181 31.0817C36.0864 31.0756 36.0553 31.0665 36.0254 31.0547C35.9953 31.0429 35.9666 31.0283 35.9396 31.0111C35.9124 30.9938 35.8872 30.974 35.8642 30.9518C35.7715 30.8628 35.7193 30.7424 35.7189 30.6167C35.7189 30.5849 35.7222 30.5531 35.7289 30.522C35.7353 30.4916 35.7447 30.4619 35.7571 30.4333C35.7697 30.4047 35.7849 30.3773 35.8027 30.3513C35.8207 30.3254 35.8413 30.3013 35.8642 30.2793C35.8872 30.2573 35.9124 30.2376 35.9396 30.2205C35.9666 30.2033 35.9953 30.1887 36.0254 30.1769C36.0553 30.1651 36.0864 30.156 36.1181 30.1499C36.1821 30.1376 36.248 30.1376 36.312 30.1499C36.3756 30.1621 36.4361 30.1861 36.49 30.2205C36.5172 30.2376 36.5424 30.2573 36.5654 30.2793C36.5883 30.3014 36.609 30.3256 36.6273 30.3513C36.6452 30.3773 36.6604 30.4047 36.673 30.4333C36.6854 30.4619 36.6948 30.4916 36.7012 30.522C36.7077 30.5532 36.7109 30.5849 36.7106 30.6167C36.7103 30.7424 36.6581 30.8628 36.5654 30.9518C36.5424 30.974 36.5172 30.9938 36.49 31.0111C36.4361 31.0455 36.3756 31.0695 36.312 31.0817C36.28 31.0877 36.2474 31.0908 36.2148 31.0907ZM34.2235 31.5666C34.191 31.5666 34.1586 31.5636 34.1268 31.5575C34.095 31.5514 34.064 31.5424 34.034 31.5305C34.004 31.5188 33.9753 31.5041 33.9483 31.4869C33.9211 31.4699 33.8958 31.4502 33.8729 31.4282C33.85 31.406 33.8292 31.3819 33.8109 31.3561C33.7931 31.3302 33.7778 31.3027 33.7653 31.2741C33.7529 31.2455 33.7434 31.2158 33.737 31.1855C33.7245 31.1243 33.7245 31.0614 33.737 31.0002C33.7434 30.9698 33.7529 30.9401 33.7653 30.9115C33.7778 30.8829 33.7931 30.8555 33.8109 30.8295C33.8292 30.8038 33.85 30.7797 33.8729 30.7575C33.8958 30.7355 33.9211 30.7158 33.9483 30.6987C33.9753 30.6815 34.004 30.6669 34.034 30.6551C34.064 30.6433 34.095 30.6342 34.1268 30.6281C34.1906 30.6158 34.2563 30.6158 34.3202 30.6281C34.3519 30.6342 34.383 30.6433 34.4129 30.6551C34.4429 30.6669 34.4716 30.6815 34.4987 30.6987C34.5258 30.7158 34.5511 30.7355 34.574 30.7575C34.5969 30.7795 34.6175 30.8037 34.6355 30.8295C34.6533 30.8555 34.6686 30.8829 34.6811 30.9115C34.6938 30.9401 34.7032 30.9698 34.7094 31.0002C34.7226 31.0613 34.7226 31.1244 34.7094 31.1855C34.7032 31.2159 34.6938 31.2456 34.6811 31.2741C34.6686 31.3027 34.6533 31.3302 34.6355 31.3561C34.6175 31.382 34.5969 31.4061 34.574 31.4282C34.5511 31.4502 34.5258 31.4699 34.4987 31.4869C34.4716 31.5041 34.4429 31.5188 34.4129 31.5305C34.383 31.5424 34.3519 31.5514 34.3202 31.5575C34.2883 31.5636 34.2559 31.5666 34.2235 31.5666ZM32.2321 32.0424C32.1988 32.0426 32.1656 32.0396 32.133 32.0334C32.1012 32.0272 32.0702 32.0182 32.0402 32.0064C31.9802 31.9823 31.9255 31.9476 31.8791 31.904C31.8331 31.8599 31.7968 31.8075 31.772 31.75C31.7596 31.7214 31.7501 31.6917 31.7437 31.6613C31.7374 31.6309 31.7342 31.6 31.7343 31.5689C31.7345 31.4432 31.7866 31.3227 31.8791 31.2334C31.9024 31.2116 31.9278 31.1919 31.9549 31.1746C31.9818 31.1575 32.0104 31.1429 32.0402 31.131C32.0702 31.1192 32.1012 31.1102 32.133 31.104C32.2292 31.0853 32.329 31.0945 32.4197 31.1304C32.5105 31.1663 32.5879 31.2272 32.6422 31.3054C32.66 31.3313 32.6753 31.3588 32.6878 31.3874C32.7002 31.416 32.7097 31.4457 32.7161 31.476C32.7293 31.5372 32.7293 31.6002 32.7161 31.6613C32.7097 31.6917 32.7002 31.7214 32.6878 31.75C32.6753 31.7786 32.66 31.806 32.6422 31.832C32.6063 31.884 32.5597 31.9285 32.5053 31.9628C32.4782 31.9798 32.4495 31.9944 32.4196 32.0064C32.3896 32.0182 32.3586 32.0273 32.3268 32.0334C32.2956 32.0393 32.2639 32.0423 32.2321 32.0424ZM36.2148 36.3256C36.1823 36.3257 36.1499 36.3226 36.1181 36.3166C36.0864 36.3104 36.0553 36.3014 36.0254 36.2895C35.9954 36.2779 35.9666 36.2635 35.9396 36.2464C35.9125 36.229 35.8873 36.2092 35.8642 36.1872C35.8412 36.1652 35.8206 36.1411 35.8027 36.1151C35.7848 36.0894 35.7696 36.0621 35.7571 36.0336C35.7448 36.005 35.7353 35.9753 35.7289 35.945C35.7222 35.9138 35.7189 35.882 35.7189 35.8502C35.719 35.8191 35.7223 35.7882 35.7289 35.7578C35.7353 35.7274 35.7447 35.6977 35.7571 35.6691C35.7694 35.6404 35.7847 35.613 35.8027 35.5871C35.8386 35.5351 35.8852 35.4906 35.9396 35.4563C35.9666 35.4391 35.9953 35.4245 36.0254 35.4127C36.0553 35.4009 36.0864 35.3918 36.1181 35.3857C36.1821 35.3734 36.248 35.3734 36.312 35.3857C36.3437 35.3919 36.3748 35.4009 36.4047 35.4127C36.4345 35.4246 36.4631 35.4392 36.49 35.4563C36.5172 35.4734 36.5424 35.4931 36.5654 35.5151C36.5884 35.5372 36.6092 35.5613 36.6273 35.5871C36.6454 35.613 36.6606 35.6404 36.673 35.6691C36.6854 35.6977 36.6948 35.7274 36.7012 35.7578C36.7076 35.7882 36.7107 35.8192 36.7106 35.8502C36.7108 35.882 36.7077 35.9138 36.7012 35.945C36.6947 35.9753 36.6853 36.005 36.673 36.0336C36.6419 36.1057 36.5927 36.1694 36.5298 36.219C36.4668 36.2687 36.392 36.3026 36.312 36.318C36.2799 36.3236 36.2474 36.3261 36.2148 36.3256ZM34.2235 36.8014C34.191 36.8015 34.1586 36.7985 34.1268 36.7924C34.095 36.7863 34.064 36.7773 34.034 36.7654C34.004 36.7536 33.9753 36.739 33.9483 36.7218C33.894 36.687 33.8473 36.6424 33.8109 36.5905C33.7934 36.5647 33.7782 36.5374 33.7658 36.509C33.7532 36.4805 33.7437 36.4508 33.7375 36.4204C33.7309 36.3892 33.7276 36.3574 33.7276 36.3256C33.7277 36.2945 33.731 36.2636 33.7375 36.2331C33.7437 36.2027 33.7532 36.173 33.7658 36.1445C33.7781 36.1159 33.7932 36.0885 33.8109 36.0625C33.8291 36.0367 33.8499 36.0125 33.8729 35.9905C33.8958 35.9685 33.9211 35.9488 33.9483 35.9317C33.9753 35.9145 34.004 35.8999 34.034 35.8881C34.064 35.8763 34.095 35.8672 34.1268 35.8611C34.1906 35.8488 34.2563 35.8488 34.3202 35.8611C34.3519 35.8672 34.383 35.8763 34.4129 35.8881C34.4429 35.8999 34.4716 35.9145 34.4987 35.9317C34.5258 35.9488 34.5511 35.9685 34.574 35.9905C34.5969 36.0125 34.6175 36.0366 34.6355 36.0625C34.6535 36.0883 34.6688 36.1158 34.6811 36.1445C34.6938 36.173 34.7032 36.2027 34.7094 36.2331C34.7159 36.2636 34.7192 36.2945 34.7193 36.3256C34.7193 36.3574 34.716 36.3892 34.7094 36.4204C34.7032 36.4508 34.6938 36.4805 34.6811 36.509C34.6687 36.5375 34.6534 36.5648 34.6355 36.5905C34.6177 36.6165 34.597 36.6406 34.574 36.6626C34.551 36.6846 34.5257 36.7044 34.4987 36.7218C34.4716 36.739 34.4429 36.7536 34.4129 36.7654C34.383 36.7773 34.3519 36.7863 34.3202 36.7924C34.2883 36.7985 34.2559 36.8015 34.2235 36.8014ZM32.2321 37.2778C32.1988 37.2778 32.1656 37.2746 32.133 37.2683C32.1012 37.2621 32.0702 37.253 32.0402 37.2413C31.9496 37.2054 31.8722 37.1446 31.8178 37.0666C31.7633 36.9887 31.7343 36.8971 31.7343 36.8033C31.7342 36.7723 31.7374 36.7413 31.7437 36.7109C31.7501 36.6805 31.7596 36.6509 31.772 36.6223C31.7968 36.5647 31.8331 36.5124 31.8791 36.4682C31.9255 36.4246 31.9802 36.3899 32.0402 36.3659C32.0702 36.3541 32.1012 36.345 32.133 36.3388C32.1969 36.3265 32.2629 36.3265 32.3268 36.3388C32.3586 36.345 32.3896 36.354 32.4196 36.3659C32.4495 36.3778 32.4782 36.3924 32.5053 36.4095C32.5597 36.4438 32.6063 36.4883 32.6422 36.5403C32.66 36.5662 32.6753 36.5937 32.6878 36.6223C32.7002 36.6509 32.7097 36.6805 32.7161 36.7109C32.7226 36.7413 32.7259 36.7723 32.726 36.8033C32.726 36.8813 32.7059 36.9581 32.6674 37.0269C32.6289 37.0957 32.5732 37.1544 32.5053 37.1977C32.4782 37.2147 32.4495 37.2293 32.4196 37.2413C32.3896 37.2531 32.3586 37.2622 32.3268 37.2683C32.2957 37.2744 32.2639 37.2775 32.2321 37.2778Z" fill="url(#paint2_linear_125_3047)"/>
<path d="M16.7998 20.1475C16.7998 21.3765 18.028 22.4903 20.2579 23.2837C22.3335 24.0216 25.083 24.4283 28.0001 24.4283C30.9166 24.4283 33.6661 24.0216 35.7413 23.2837C37.9726 22.4903 39.1993 21.3769 39.1993 20.1475C39.1993 18.918 37.9726 17.8042 35.7413 17.0108C33.6661 16.2729 30.9171 15.8662 28.0001 15.8662C25.083 15.8662 22.3335 16.2729 20.2579 17.0108C18.028 17.8042 16.7998 18.9185 16.7998 20.1475ZM16.7998 20.1475V35.8516C16.7998 37.0811 18.028 38.1949 20.2579 38.9878C22.3335 39.7262 25.083 40.1329 28.0001 40.1329C30.9166 40.1329 33.6661 39.7262 35.7418 38.9878C37.9721 38.1949 39.1998 37.0811 39.1998 35.8516V20.1475C39.1998 20.0218 39.1476 19.9012 39.0546 19.8123C38.9616 19.7235 38.8355 19.6735 38.704 19.6735C38.5724 19.6735 38.4463 19.7235 38.3533 19.8123C38.2603 19.9012 38.2081 20.0218 38.2081 20.1475M16.7998 20.1475C16.7998 20.0218 16.852 19.9012 16.945 19.8123C17.038 19.7235 17.1641 19.6735 17.2957 19.6735C17.4272 19.6735 17.5533 19.7235 17.6463 19.8123C17.7393 19.9012 17.7915 20.0218 17.7915 20.1475M17.7915 20.1475C17.7915 18.5706 21.9839 16.8141 28.0001 16.8141C34.0157 16.8141 38.2081 18.5711 38.2081 20.1475M17.7915 20.1475C17.7915 21.7243 21.9839 23.4804 28.0001 23.4804C34.0162 23.4804 38.2081 21.7239 38.2081 20.1475M17.7915 20.1475V35.8516C17.7915 37.4285 21.9839 39.185 28.0001 39.185C34.0162 39.185 38.2081 37.4285 38.2081 35.8516V20.1475M28.0001 29.6631C25.083 29.6631 22.3335 29.2565 20.2579 28.5185C18.028 27.7251 16.7998 26.6113 16.7998 25.3819C16.7998 25.2562 16.852 25.1356 16.945 25.0467C17.038 24.9578 17.1641 24.9079 17.2957 24.9079C17.4272 24.9079 17.5533 24.9578 17.6463 25.0467C17.7393 25.1356 17.7915 25.2562 17.7915 25.3819C17.7915 26.9568 21.9839 28.7152 28.0001 28.7152C34.0162 28.7152 38.2081 26.9568 38.2081 25.3819C38.2081 25.2562 38.2603 25.1356 38.3533 25.0467C38.4463 24.9578 38.5724 24.9079 38.704 24.9079C38.8355 24.9079 38.9616 24.9578 39.0546 25.0467C39.1476 25.1356 39.1998 25.2562 39.1998 25.3819C39.1998 26.6113 37.9721 27.7251 35.7418 28.5185C33.6661 29.2565 30.9166 29.6631 28.0001 29.6631ZM28.0001 34.898C25.083 34.898 22.3335 34.4914 20.2579 33.7534C18.028 32.96 16.7998 31.8462 16.7998 30.6167C16.7998 30.491 16.852 30.3705 16.945 30.2816C17.038 30.1927 17.1641 30.1428 17.2957 30.1428C17.4272 30.1428 17.5533 30.1927 17.6463 30.2816C17.7393 30.3705 17.7915 30.491 17.7915 30.6167C17.7915 32.1936 21.9839 33.9501 28.0001 33.9501C34.0162 33.9501 38.2081 32.1936 38.2081 30.6167C38.2081 30.491 38.2603 30.3705 38.3533 30.2816C38.4463 30.1927 38.5724 30.1428 38.704 30.1428C38.8355 30.1428 38.9616 30.1927 39.0546 30.2816C39.1476 30.3705 39.1998 30.491 39.1998 30.6167C39.1998 31.8462 37.9721 32.96 35.7418 33.7534C33.6661 34.4928 30.9166 34.898 28.0001 34.898ZM36.2148 25.8563C36.1823 25.8562 36.1499 25.8531 36.1181 25.8468C36.0864 25.8407 36.0553 25.8317 36.0254 25.8198C35.9953 25.808 35.9666 25.7934 35.9396 25.7762C35.8852 25.7419 35.8386 25.6974 35.8027 25.6454C35.7849 25.6195 35.7697 25.592 35.7571 25.5634C35.7447 25.5348 35.7353 25.5051 35.7289 25.4748C35.7156 25.4136 35.7156 25.3506 35.7289 25.2895C35.7413 25.2284 35.7664 25.1702 35.8025 25.1185C35.8387 25.0667 35.8853 25.0224 35.9396 24.988C35.9666 24.9708 35.9953 24.9562 36.0254 24.9444C36.0553 24.9326 36.0864 24.9235 36.1181 24.9174C36.1821 24.9051 36.248 24.9051 36.312 24.9174C36.4078 24.9359 36.4959 24.9809 36.5654 25.0468C36.5883 25.0691 36.609 25.0934 36.6273 25.1193C36.6634 25.1709 36.6885 25.2287 36.7012 25.2895C36.7138 25.3506 36.7138 25.4136 36.7012 25.4748C36.6948 25.5051 36.6854 25.5348 36.673 25.5634C36.6604 25.592 36.6452 25.6195 36.6273 25.6454C36.6092 25.6713 36.5884 25.6954 36.5654 25.7174C36.5424 25.7394 36.5172 25.7591 36.49 25.7762C36.4631 25.7933 36.4345 25.8079 36.4047 25.8198C36.3748 25.8316 36.3437 25.8406 36.312 25.8468C36.28 25.853 36.2474 25.8562 36.2148 25.8563ZM34.2235 26.3322C34.191 26.3321 34.1586 26.3289 34.1268 26.3227C34.095 26.3166 34.064 26.3075 34.034 26.2957C34.004 26.2839 33.9753 26.2693 33.9483 26.2521C33.9211 26.235 33.8958 26.2153 33.8729 26.1933C33.8266 26.1493 33.79 26.0969 33.7653 26.0393C33.7529 26.0107 33.7434 25.981 33.737 25.9506C33.7305 25.9194 33.7274 25.8877 33.7276 25.8558C33.7274 25.824 33.7306 25.7923 33.737 25.761C33.7436 25.7307 33.753 25.7011 33.7653 25.6724C33.7903 25.615 33.8268 25.5628 33.8729 25.5188C33.8958 25.4967 33.9211 25.4768 33.9483 25.4596C33.9753 25.4424 34.004 25.4278 34.034 25.416C34.064 25.4041 34.095 25.3951 34.1268 25.389C34.1906 25.3767 34.2563 25.3767 34.3201 25.389C34.3519 25.3951 34.383 25.4041 34.4129 25.416C34.4429 25.4278 34.4716 25.4424 34.4987 25.4596C34.5529 25.4943 34.5994 25.5389 34.6355 25.5909C34.6534 25.6166 34.6687 25.6439 34.6811 25.6724C34.6936 25.701 34.7031 25.7307 34.7094 25.761C34.716 25.7922 34.7193 25.824 34.7193 25.8558C34.7194 25.8877 34.7161 25.9194 34.7094 25.9506C34.7032 25.981 34.6937 26.0107 34.6811 26.0393C34.6687 26.0679 34.6534 26.0954 34.6355 26.1212C34.5996 26.1732 34.5531 26.2177 34.4987 26.2521C34.4716 26.2693 34.4429 26.2839 34.4129 26.2957C34.383 26.3075 34.3519 26.3166 34.3201 26.3227C34.2883 26.3289 34.2559 26.3321 34.2235 26.3322ZM32.2321 26.808C32.1988 26.808 32.1656 26.8049 32.133 26.7985C32.1012 26.7923 32.0702 26.7833 32.0402 26.7715C31.9493 26.7362 31.8717 26.6754 31.8176 26.5971C31.7996 26.5713 31.7843 26.5438 31.772 26.5151C31.7596 26.4865 31.7501 26.4568 31.7437 26.4265C31.7374 26.396 31.7342 26.3651 31.7343 26.3341C31.7341 26.3022 31.7373 26.2705 31.7437 26.2393C31.7511 26.209 31.7614 26.1795 31.7745 26.1511C31.7994 26.0938 31.8358 26.0416 31.8816 25.9975C31.9049 25.9756 31.9303 25.9558 31.9574 25.9383C31.9843 25.9212 32.0129 25.9066 32.0427 25.8947C32.0727 25.8829 32.1037 25.8739 32.1354 25.8677C32.1994 25.8554 32.2653 25.8554 32.3293 25.8677C32.3611 25.8738 32.3921 25.8828 32.422 25.8947C32.452 25.9067 32.4807 25.9213 32.5078 25.9383C32.5348 25.9558 32.56 25.9756 32.5832 25.9975C32.6062 26.0195 32.6268 26.0436 32.6447 26.0696C32.6626 26.0953 32.6779 26.1226 32.6903 26.1511C32.7026 26.1798 32.712 26.2094 32.7186 26.2397C32.7252 26.2709 32.7285 26.3027 32.7285 26.3345C32.7284 26.3656 32.7251 26.3965 32.7186 26.427C32.7122 26.4573 32.7027 26.487 32.6903 26.5156C32.678 26.5443 32.6627 26.5718 32.6447 26.5976C32.6268 26.6235 32.6062 26.6477 32.5832 26.6696C32.5601 26.6915 32.5349 26.7112 32.5078 26.7284C32.4807 26.7454 32.452 26.76 32.422 26.772C32.3921 26.7838 32.3611 26.7929 32.3293 26.799C32.2973 26.8051 32.2648 26.8081 32.2321 26.808ZM36.2148 31.0907C36.1823 31.0908 36.1499 31.0878 36.1181 31.0817C36.0864 31.0756 36.0553 31.0665 36.0254 31.0547C35.9953 31.0429 35.9666 31.0283 35.9396 31.0111C35.9124 30.9938 35.8872 30.974 35.8642 30.9518C35.7715 30.8628 35.7193 30.7424 35.7189 30.6167C35.7189 30.5849 35.7222 30.5531 35.7289 30.522C35.7353 30.4916 35.7447 30.4619 35.7571 30.4333C35.7697 30.4047 35.7849 30.3773 35.8027 30.3513C35.8207 30.3254 35.8413 30.3013 35.8642 30.2793C35.8872 30.2573 35.9124 30.2376 35.9396 30.2205C35.9666 30.2033 35.9953 30.1887 36.0254 30.1769C36.0553 30.1651 36.0864 30.156 36.1181 30.1499C36.1821 30.1376 36.248 30.1376 36.312 30.1499C36.3756 30.1621 36.4361 30.1861 36.49 30.2205C36.5172 30.2376 36.5424 30.2573 36.5654 30.2793C36.5883 30.3014 36.609 30.3256 36.6273 30.3513C36.6452 30.3773 36.6604 30.4047 36.673 30.4333C36.6854 30.4619 36.6948 30.4916 36.7012 30.522C36.7077 30.5532 36.7109 30.5849 36.7106 30.6167C36.7103 30.7424 36.6581 30.8628 36.5654 30.9518C36.5424 30.974 36.5172 30.9938 36.49 31.0111C36.4361 31.0455 36.3756 31.0695 36.312 31.0817C36.28 31.0877 36.2474 31.0908 36.2148 31.0907ZM34.2235 31.5666C34.191 31.5666 34.1586 31.5636 34.1268 31.5575C34.095 31.5514 34.064 31.5424 34.034 31.5305C34.004 31.5188 33.9753 31.5041 33.9483 31.4869C33.9211 31.4699 33.8958 31.4502 33.8729 31.4282C33.85 31.406 33.8292 31.3819 33.8109 31.3561C33.7931 31.3302 33.7778 31.3027 33.7653 31.2741C33.7529 31.2455 33.7434 31.2158 33.737 31.1855C33.7245 31.1243 33.7245 31.0614 33.737 31.0002C33.7434 30.9698 33.7529 30.9401 33.7653 30.9115C33.7778 30.8829 33.7931 30.8555 33.8109 30.8295C33.8292 30.8038 33.85 30.7797 33.8729 30.7575C33.8958 30.7355 33.9211 30.7158 33.9483 30.6987C33.9753 30.6815 34.004 30.6669 34.034 30.6551C34.064 30.6433 34.095 30.6342 34.1268 30.6281C34.1906 30.6158 34.2563 30.6158 34.3201 30.6281C34.3519 30.6342 34.383 30.6433 34.4129 30.6551C34.4429 30.6669 34.4716 30.6815 34.4987 30.6987C34.5258 30.7158 34.5511 30.7355 34.574 30.7575C34.5969 30.7795 34.6175 30.8037 34.6355 30.8295C34.6533 30.8555 34.6686 30.8829 34.6811 30.9115C34.6937 30.9401 34.7032 30.9698 34.7094 31.0002C34.7226 31.0613 34.7226 31.1244 34.7094 31.1855C34.7032 31.2159 34.6937 31.2456 34.6811 31.2741C34.6686 31.3027 34.6533 31.3302 34.6355 31.3561C34.6175 31.382 34.5969 31.4061 34.574 31.4282C34.5511 31.4502 34.5258 31.4699 34.4987 31.4869C34.4716 31.5041 34.4429 31.5188 34.4129 31.5305C34.383 31.5424 34.3519 31.5514 34.3201 31.5575C34.2883 31.5636 34.2559 31.5666 34.2235 31.5666ZM32.2321 32.0424C32.1988 32.0426 32.1656 32.0396 32.133 32.0334C32.1012 32.0272 32.0702 32.0182 32.0402 32.0064C31.9802 31.9823 31.9255 31.9476 31.8791 31.904C31.8331 31.8599 31.7968 31.8075 31.772 31.75C31.7596 31.7214 31.7501 31.6917 31.7437 31.6613C31.7374 31.6309 31.7342 31.6 31.7343 31.5689C31.7345 31.4432 31.7866 31.3227 31.8791 31.2334C31.9024 31.2116 31.9278 31.1919 31.9549 31.1746C31.9818 31.1575 32.0104 31.1429 32.0402 31.131C32.0702 31.1192 32.1012 31.1102 32.133 31.104C32.2292 31.0853 32.329 31.0945 32.4197 31.1304C32.5105 31.1663 32.5879 31.2272 32.6422 31.3054C32.66 31.3313 32.6753 31.3588 32.6878 31.3874C32.7002 31.416 32.7097 31.4457 32.7161 31.476C32.7293 31.5372 32.7293 31.6002 32.7161 31.6613C32.7097 31.6917 32.7002 31.7214 32.6878 31.75C32.6753 31.7786 32.66 31.806 32.6422 31.832C32.6063 31.884 32.5597 31.9285 32.5053 31.9628C32.4782 31.9798 32.4495 31.9944 32.4196 32.0064C32.3896 32.0182 32.3586 32.0273 32.3268 32.0334C32.2956 32.0393 32.2639 32.0423 32.2321 32.0424ZM36.2148 36.3256C36.1823 36.3257 36.1499 36.3226 36.1181 36.3166C36.0864 36.3104 36.0553 36.3014 36.0254 36.2895C35.9954 36.2779 35.9666 36.2635 35.9396 36.2464C35.9125 36.229 35.8873 36.2092 35.8642 36.1872C35.8412 36.1652 35.8206 36.1411 35.8027 36.1151C35.7848 36.0894 35.7696 36.0621 35.7571 36.0336C35.7448 36.005 35.7353 35.9753 35.7289 35.945C35.7222 35.9138 35.7189 35.882 35.7189 35.8502C35.719 35.8191 35.7223 35.7882 35.7289 35.7578C35.7353 35.7274 35.7447 35.6977 35.7571 35.6691C35.7694 35.6404 35.7847 35.613 35.8027 35.5871C35.8386 35.5351 35.8852 35.4906 35.9396 35.4563C35.9666 35.4391 35.9953 35.4245 36.0254 35.4127C36.0553 35.4009 36.0864 35.3918 36.1181 35.3857C36.1821 35.3734 36.248 35.3734 36.312 35.3857C36.3437 35.3919 36.3748 35.4009 36.4047 35.4127C36.4345 35.4246 36.4631 35.4392 36.49 35.4563C36.5172 35.4734 36.5424 35.4931 36.5654 35.5151C36.5884 35.5372 36.6092 35.5613 36.6273 35.5871C36.6454 35.613 36.6606 35.6404 36.673 35.6691C36.6854 35.6977 36.6948 35.7274 36.7012 35.7578C36.7076 35.7882 36.7107 35.8192 36.7106 35.8502C36.7108 35.882 36.7077 35.9138 36.7012 35.945C36.6947 35.9753 36.6853 36.005 36.673 36.0336C36.6419 36.1057 36.5927 36.1694 36.5298 36.219C36.4668 36.2687 36.392 36.3026 36.312 36.318C36.2799 36.3236 36.2474 36.3261 36.2148 36.3256ZM34.2235 36.8014C34.191 36.8015 34.1586 36.7985 34.1268 36.7924C34.095 36.7863 34.064 36.7773 34.034 36.7654C34.004 36.7536 33.9753 36.739 33.9483 36.7218C33.894 36.687 33.8473 36.6424 33.8109 36.5905C33.7934 36.5647 33.7782 36.5374 33.7658 36.509C33.7532 36.4805 33.7437 36.4508 33.7375 36.4204C33.7309 36.3892 33.7276 36.3574 33.7276 36.3256C33.7277 36.2945 33.731 36.2636 33.7375 36.2331C33.7437 36.2027 33.7532 36.173 33.7658 36.1445C33.7781 36.1159 33.7932 36.0885 33.8109 36.0625C33.8291 36.0367 33.8499 36.0125 33.8729 35.9905C33.8958 35.9685 33.9211 35.9488 33.9483 35.9317C33.9753 35.9145 34.004 35.8999 34.034 35.8881C34.064 35.8763 34.095 35.8672 34.1268 35.8611C34.1906 35.8488 34.2563 35.8488 34.3201 35.8611C34.3519 35.8672 34.383 35.8763 34.4129 35.8881C34.4429 35.8999 34.4716 35.9145 34.4987 35.9317C34.5258 35.9488 34.5511 35.9685 34.574 35.9905C34.5969 36.0125 34.6175 36.0366 34.6355 36.0625C34.6535 36.0883 34.6688 36.1158 34.6811 36.1445C34.6937 36.173 34.7032 36.2027 34.7094 36.2331C34.7159 36.2636 34.7192 36.2945 34.7193 36.3256C34.7193 36.3574 34.716 36.3892 34.7094 36.4204C34.7032 36.4508 34.6937 36.4805 34.6811 36.509C34.6687 36.5375 34.6534 36.5648 34.6355 36.5905C34.6177 36.6165 34.597 36.6406 34.574 36.6626C34.551 36.6846 34.5257 36.7044 34.4987 36.7218C34.4716 36.739 34.4429 36.7536 34.4129 36.7654C34.383 36.7773 34.3519 36.7863 34.3201 36.7924C34.2883 36.7985 34.2559 36.8015 34.2235 36.8014ZM32.2321 37.2778C32.1988 37.2778 32.1656 37.2746 32.133 37.2683C32.1012 37.2621 32.0702 37.253 32.0402 37.2413C31.9496 37.2054 31.8722 37.1446 31.8178 37.0666C31.7633 36.9887 31.7343 36.8971 31.7343 36.8033C31.7342 36.7723 31.7374 36.7413 31.7437 36.7109C31.7501 36.6806 31.7596 36.6509 31.772 36.6223C31.7968 36.5647 31.8331 36.5124 31.8791 36.4682C31.9255 36.4246 31.9802 36.3899 32.0402 36.3659C32.0702 36.3541 32.1012 36.345 32.133 36.3388C32.1969 36.3265 32.2629 36.3265 32.3268 36.3388C32.3586 36.345 32.3896 36.354 32.4196 36.3659C32.4495 36.3778 32.4782 36.3924 32.5053 36.4095C32.5597 36.4438 32.6063 36.4883 32.6422 36.5403C32.66 36.5662 32.6753 36.5937 32.6878 36.6223C32.7002 36.6509 32.7097 36.6806 32.7161 36.7109C32.7226 36.7413 32.7259 36.7723 32.726 36.8033C32.726 36.8813 32.7059 36.9581 32.6674 37.0269C32.6289 37.0957 32.5732 37.1544 32.5053 37.1977C32.4782 37.2147 32.4495 37.2293 32.4196 37.2413C32.3896 37.2531 32.3586 37.2622 32.3268 37.2683C32.2957 37.2744 32.2639 37.2775 32.2321 37.2778Z" stroke="url(#paint3_linear_125_3047)" stroke-width="0.466667"/>
<defs>
<linearGradient id="paint0_linear_125_3047" x1="43.584" y1="27.9492" x2="16.7998" y2="27.9762" gradientUnits="userSpaceOnUse">
<stop stop-color="#0073DE"/>
<stop offset="1" stop-color="#033675"/>
</linearGradient>
<linearGradient id="paint1_linear_125_3047" x1="43.584" y1="27.9492" x2="16.7998" y2="27.9762" gradientUnits="userSpaceOnUse">
<stop stop-color="#0073DE"/>
<stop offset="1" stop-color="#033675"/>
</linearGradient>
<linearGradient id="paint2_linear_125_3047" x1="43.584" y1="27.9492" x2="16.7998" y2="27.9762" gradientUnits="userSpaceOnUse">
<stop stop-color="#0073DE"/>
<stop offset="1" stop-color="#033675"/>
</linearGradient>
<linearGradient id="paint3_linear_125_3047" x1="43.584" y1="27.9492" x2="16.7998" y2="27.9762" gradientUnits="userSpaceOnUse">
<stop stop-color="#0073DE"/>
<stop offset="1" stop-color="#033675"/>
</linearGradient>
</defs>
</svg>
