<svg width="56" height="56" viewBox="0 0 56 56" fill="none" xmlns="http://www.w3.org/2000/svg">
<path d="M0 28C0 12.536 12.536 0 28 0C43.464 0 56 12.536 56 28C56 43.464 43.464 56 28 56C12.536 56 0 43.464 0 28Z" fill="#0151A3" fill-opacity="0.12"/>
<path d="M27.9993 13.999C20.2614 13.999 13.999 20.2606 13.999 27.9993C13.999 35.7371 20.2606 41.9995 27.9993 41.9995C35.7372 41.9995 41.9995 35.7379 41.9995 27.9993C41.9995 20.2614 35.7379 13.999 27.9993 13.999ZM27.9993 40.046C21.3567 40.046 15.9526 34.6419 15.9526 27.9993C15.9526 21.3567 21.3567 15.9526 27.9993 15.9526C34.6419 15.9526 40.046 21.3567 40.046 27.9993C40.046 34.6419 34.6419 40.046 27.9993 40.046Z" fill="url(#paint0_linear_125_3057)"/>
<path d="M27.585 31.714C26.811 31.714 26.1844 32.359 26.1844 33.1329C26.1844 33.8885 26.7926 34.552 27.585 34.552C28.3774 34.552 29.004 33.8885 29.004 33.1329C29.004 32.359 28.359 31.714 27.585 31.714ZM27.8245 20.9701C25.3367 20.9701 24.1941 22.4445 24.1941 23.4396C24.1941 24.1583 24.8022 24.49 25.2998 24.49C26.295 24.49 25.8896 23.071 27.7693 23.071C28.6906 23.071 29.4279 23.4764 29.4279 24.3242C29.4279 25.3193 28.3958 25.8906 27.7877 26.4065C27.2532 26.8672 26.553 27.6228 26.553 29.2077C26.553 30.1659 26.811 30.4424 27.5665 30.4424C28.4695 30.4424 28.6538 30.037 28.6538 29.6868C28.6538 28.7285 28.6722 28.1757 29.6858 27.3832C30.1834 26.9963 31.7498 25.7431 31.7498 24.0108C31.7498 22.2786 30.1834 20.9701 27.8245 20.9701Z" fill="url(#paint1_linear_125_3057)"/>
<defs>
<linearGradient id="paint0_linear_125_3057" x1="47.4799" y1="27.9412" x2="13.999" y2="27.9777" gradientUnits="userSpaceOnUse">
<stop stop-color="#0073DE"/>
<stop offset="1" stop-color="#033675"/>
</linearGradient>
<linearGradient id="paint1_linear_125_3057" x1="47.4799" y1="27.9412" x2="13.999" y2="27.9777" gradientUnits="userSpaceOnUse">
<stop stop-color="#0073DE"/>
<stop offset="1" stop-color="#033675"/>
</linearGradient>
</defs>
</svg>
