<svg width="56" height="56" viewBox="0 0 56 56" fill="none" xmlns="http://www.w3.org/2000/svg">
<path d="M0 28C0 12.536 12.536 0 28 0C43.464 0 56 12.536 56 28C56 43.464 43.464 56 28 56C12.536 56 0 43.464 0 28Z" fill="#0151A3" fill-opacity="0.12"/>
<path d="M38.6894 26.5633C38.5544 26.5633 38.4249 26.5097 38.3295 26.4142C38.234 26.3188 38.1804 26.1893 38.1804 26.0543C38.1804 23.063 37.0156 20.25 34.9 18.1353C34.8072 18.0393 34.7559 17.9107 34.7571 17.7772C34.7583 17.6438 34.8118 17.5161 34.9062 17.4217C35.0006 17.3273 35.1282 17.2738 35.2617 17.2726C35.3952 17.2715 35.5238 17.3228 35.6198 17.4155C36.7581 18.5471 37.6605 19.8934 38.2748 21.3763C38.8891 22.8592 39.203 24.4492 39.1985 26.0543C39.1985 26.1893 39.1448 26.3188 39.0494 26.4142C38.9539 26.5097 38.8244 26.5633 38.6894 26.5633ZM17.3089 26.5633C17.1739 26.5633 17.0444 26.5097 16.9489 26.4142C16.8534 26.3188 16.7998 26.1893 16.7998 26.0543C16.7998 22.7902 18.0704 19.7226 20.3785 17.4155C20.4745 17.3228 20.6031 17.2715 20.7366 17.2726C20.8701 17.2738 20.9977 17.3273 21.0921 17.4217C21.1865 17.5161 21.24 17.6438 21.2412 17.7772C21.2424 17.9107 21.191 18.0393 21.0983 18.1353C20.055 19.1727 19.2278 20.4068 18.6647 21.7661C18.1016 23.1254 17.8138 24.5829 17.8179 26.0543C17.8179 26.1893 17.7643 26.3188 17.6688 26.4142C17.5734 26.5097 17.4439 26.5633 17.3089 26.5633ZM29.5263 20.1288C29.3913 20.1288 29.2618 20.0752 29.1664 19.9797C29.0709 19.8842 29.0173 19.7547 29.0173 19.6197V17.9093C29.0173 17.3483 28.5601 16.8912 27.9991 16.8912C27.4382 16.8912 26.981 17.3483 26.981 17.9093V19.6197C26.981 19.7547 26.9274 19.8842 26.8319 19.9797C26.7365 20.0752 26.607 20.1288 26.472 20.1288C26.337 20.1288 26.2075 20.0752 26.112 19.9797C26.0165 19.8842 25.9629 19.7547 25.9629 19.6197V17.9093C25.9629 16.7863 26.8762 15.873 27.9991 15.873C29.1221 15.873 30.0354 16.7863 30.0354 17.9093V19.6197C30.0354 19.7547 29.9818 19.8842 29.8863 19.9797C29.7908 20.0752 29.6613 20.1288 29.5263 20.1288ZM27.9991 40.308C26.0342 40.308 24.4357 38.7095 24.4357 36.7445C24.4357 36.6095 24.4894 36.4801 24.5848 36.3846C24.6803 36.2891 24.8098 36.2355 24.9448 36.2355C25.0798 36.2355 25.2093 36.2891 25.3047 36.3846C25.4002 36.4801 25.4538 36.6095 25.4538 36.7445C25.4538 38.1475 26.5962 39.2898 27.9991 39.2898C29.4021 39.2898 30.5444 38.1475 30.5444 36.7445C30.5444 36.6095 30.5981 36.4801 30.6935 36.3846C30.789 36.2891 30.9185 36.2355 31.0535 36.2355C31.1885 36.2355 31.318 36.2891 31.4135 36.3846C31.5089 36.4801 31.5626 36.6095 31.5626 36.7445C31.5626 38.7095 29.9641 40.308 27.9991 40.308Z" fill="url(#paint0_linear_125_3037)"/>
<path d="M36.6532 37.2536H19.3451C19.0334 37.2525 18.7295 37.1562 18.4741 36.9776C18.2187 36.799 18.0239 36.5466 17.9159 36.2542C17.808 35.9618 17.7919 35.6434 17.8699 35.3417C17.9479 35.0399 18.1163 34.7692 18.3524 34.5658C19.1422 33.901 19.7769 33.0715 20.2122 32.1355C20.6475 31.1995 20.8728 30.1796 20.8723 29.1473V26.0543C20.8723 22.1243 24.0692 18.9274 27.9991 18.9274C31.9291 18.9274 35.126 22.1243 35.126 26.0543V29.1473C35.126 31.2375 36.0413 33.2096 37.6377 34.5586C37.8766 34.7607 38.0477 35.0312 38.1279 35.3337C38.2081 35.6361 38.1935 35.9559 38.0862 36.2498C37.9788 36.5437 37.7838 36.7975 37.5275 36.9771C37.2713 37.1566 36.9661 37.2531 36.6532 37.2536ZM27.9991 19.9455C24.6302 19.9455 21.8904 22.6853 21.8904 26.0543V29.1473C21.8915 30.3259 21.6351 31.4905 21.1389 32.5596C20.6428 33.6287 19.919 34.5764 19.0183 35.3365C18.9383 35.4036 18.8809 35.4937 18.8538 35.5946C18.8268 35.6955 18.8314 35.8022 18.8671 35.9003C18.9028 35.9985 18.9678 36.0833 19.0533 36.1432C19.1388 36.2032 19.2407 36.2354 19.3451 36.2355H36.6532C36.7572 36.2355 36.8588 36.2036 36.9442 36.1441C37.0296 36.0846 37.0947 36.0004 37.1307 35.9028C37.1668 35.8052 37.1721 35.6988 37.1458 35.5981C37.1196 35.4974 37.0631 35.4072 36.9841 35.3395C36.0825 34.5793 35.3579 33.6311 34.8611 32.5615C34.3643 31.4919 34.1072 30.3267 34.1079 29.1473V26.0543C34.1079 22.6853 31.3681 19.9455 27.9991 19.9455Z" fill="url(#paint1_linear_125_3037)"/>
<path d="M38.6894 26.5633C38.5544 26.5633 38.4249 26.5097 38.3295 26.4142C38.234 26.3188 38.1804 26.1893 38.1804 26.0543C38.1804 23.063 37.0156 20.25 34.9 18.1353C34.8072 18.0393 34.7559 17.9107 34.7571 17.7772C34.7583 17.6438 34.8118 17.5161 34.9062 17.4217C35.0006 17.3273 35.1282 17.2738 35.2617 17.2726C35.3952 17.2715 35.5238 17.3228 35.6198 17.4155C36.7581 18.5471 37.6605 19.8934 38.2748 21.3763C38.8891 22.8592 39.203 24.4492 39.1985 26.0543C39.1985 26.1893 39.1448 26.3188 39.0494 26.4142C38.9539 26.5097 38.8244 26.5633 38.6894 26.5633ZM17.3089 26.5633C17.1739 26.5633 17.0444 26.5097 16.9489 26.4142C16.8534 26.3188 16.7998 26.1893 16.7998 26.0543C16.7998 22.7902 18.0704 19.7226 20.3785 17.4155C20.4745 17.3228 20.6031 17.2715 20.7366 17.2726C20.8701 17.2738 20.9977 17.3273 21.0921 17.4217C21.1865 17.5161 21.24 17.6438 21.2412 17.7772C21.2424 17.9107 21.191 18.0393 21.0983 18.1353C20.055 19.1727 19.2278 20.4068 18.6647 21.7661C18.1016 23.1254 17.8138 24.5829 17.8179 26.0543C17.8179 26.1893 17.7643 26.3188 17.6688 26.4142C17.5734 26.5097 17.4439 26.5633 17.3089 26.5633ZM29.5263 20.1288C29.3913 20.1288 29.2618 20.0752 29.1664 19.9797C29.0709 19.8842 29.0173 19.7547 29.0173 19.6197V17.9093C29.0173 17.3483 28.5601 16.8912 27.9991 16.8912C27.4382 16.8912 26.981 17.3483 26.981 17.9093V19.6197C26.981 19.7547 26.9274 19.8842 26.8319 19.9797C26.7365 20.0752 26.607 20.1288 26.472 20.1288C26.337 20.1288 26.2075 20.0752 26.112 19.9797C26.0165 19.8842 25.9629 19.7547 25.9629 19.6197V17.9093C25.9629 16.7863 26.8762 15.873 27.9991 15.873C29.1221 15.873 30.0354 16.7863 30.0354 17.9093V19.6197C30.0354 19.7547 29.9818 19.8842 29.8863 19.9797C29.7908 20.0752 29.6613 20.1288 29.5263 20.1288ZM27.9991 40.308C26.0342 40.308 24.4357 38.7095 24.4357 36.7445C24.4357 36.6095 24.4894 36.4801 24.5848 36.3846C24.6803 36.2891 24.8098 36.2355 24.9448 36.2355C25.0798 36.2355 25.2093 36.2891 25.3047 36.3846C25.4002 36.4801 25.4538 36.6095 25.4538 36.7445C25.4538 38.1475 26.5962 39.2898 27.9991 39.2898C29.4021 39.2898 30.5444 38.1475 30.5444 36.7445C30.5444 36.6095 30.5981 36.4801 30.6935 36.3846C30.789 36.2891 30.9185 36.2355 31.0535 36.2355C31.1885 36.2355 31.318 36.2891 31.4135 36.3846C31.5089 36.4801 31.5626 36.6095 31.5626 36.7445C31.5626 38.7095 29.9641 40.308 27.9991 40.308Z" stroke="url(#paint2_linear_125_3037)" stroke-width="0.746667"/>
<path d="M36.6532 37.2536H19.3451C19.0334 37.2525 18.7295 37.1562 18.4741 36.9776C18.2187 36.799 18.0239 36.5466 17.9159 36.2542C17.808 35.9618 17.7919 35.6434 17.8699 35.3417C17.9479 35.0399 18.1163 34.7692 18.3524 34.5658C19.1422 33.901 19.7769 33.0715 20.2122 32.1355C20.6475 31.1995 20.8728 30.1796 20.8723 29.1473V26.0543C20.8723 22.1243 24.0692 18.9274 27.9991 18.9274C31.9291 18.9274 35.126 22.1243 35.126 26.0543V29.1473C35.126 31.2375 36.0413 33.2096 37.6377 34.5586C37.8766 34.7607 38.0477 35.0312 38.1279 35.3337C38.2081 35.6361 38.1935 35.9559 38.0862 36.2498C37.9788 36.5437 37.7838 36.7975 37.5275 36.9771C37.2713 37.1566 36.9661 37.2531 36.6532 37.2536ZM27.9991 19.9455C24.6302 19.9455 21.8904 22.6853 21.8904 26.0543V29.1473C21.8915 30.3259 21.6351 31.4905 21.1389 32.5596C20.6428 33.6287 19.919 34.5764 19.0183 35.3365C18.9383 35.4036 18.8809 35.4937 18.8538 35.5946C18.8268 35.6955 18.8314 35.8022 18.8671 35.9003C18.9028 35.9985 18.9678 36.0833 19.0533 36.1432C19.1388 36.2032 19.2407 36.2354 19.3451 36.2355H36.6532C36.7572 36.2355 36.8588 36.2036 36.9442 36.1441C37.0296 36.0846 37.0947 36.0004 37.1307 35.9028C37.1668 35.8052 37.1721 35.6988 37.1458 35.5981C37.1196 35.4974 37.0631 35.4072 36.9841 35.3395C36.0825 34.5793 35.3579 33.6311 34.8611 32.5615C34.3643 31.4919 34.1072 30.3267 34.1079 29.1473V26.0543C34.1079 22.6853 31.3681 19.9455 27.9991 19.9455Z" stroke="url(#paint3_linear_125_3037)" stroke-width="0.746667"/>
<defs>
<linearGradient id="paint0_linear_125_3037" x1="43.5825" y1="28.0398" x2="16.7998" y2="28.0666" gradientUnits="userSpaceOnUse">
<stop stop-color="#0073DE"/>
<stop offset="1" stop-color="#033675"/>
</linearGradient>
<linearGradient id="paint1_linear_125_3037" x1="43.5825" y1="28.0398" x2="16.7998" y2="28.0666" gradientUnits="userSpaceOnUse">
<stop stop-color="#0073DE"/>
<stop offset="1" stop-color="#033675"/>
</linearGradient>
<linearGradient id="paint2_linear_125_3037" x1="43.5825" y1="28.0398" x2="16.7998" y2="28.0666" gradientUnits="userSpaceOnUse">
<stop stop-color="#0073DE"/>
<stop offset="1" stop-color="#033675"/>
</linearGradient>
<linearGradient id="paint3_linear_125_3037" x1="43.5825" y1="28.0398" x2="16.7998" y2="28.0666" gradientUnits="userSpaceOnUse">
<stop stop-color="#0073DE"/>
<stop offset="1" stop-color="#033675"/>
</linearGradient>
</defs>
</svg>
